<?xml version="1.0" encoding="UTF-8" standalone="no"?>

<svg
   version="1.1"
   id="svg148"
   width="536.72321"
   height="706.21472"
   viewBox="0 0 536.72321 706.21472"
   sodipodi:docname="logo_vision_wildlife_frog_only.svg"
   inkscape:version="1.2.1 (9c6d41e4, 2022-07-14)"
   xmlns:inkscape="http://www.inkscape.org/namespaces/inkscape"
   xmlns:sodipodi="http://sodipodi.sourceforge.net/DTD/sodipodi-0.dtd"
   xmlns="http://www.w3.org/2000/svg"
   xmlns:svg="http://www.w3.org/2000/svg">
  <defs
     id="defs152">
    <clipPath
       clipPathUnits="userSpaceOnUse"
       id="clipPath166">
      <path
         d="M 0,2000 H 2000 V 0 H 0 Z"
         id="path164" />
    </clipPath>
    <clipPath
       clipPathUnits="userSpaceOnUse"
       id="clipPath970">
      <rect
         style="fill:#808000;stroke:#000000;stroke-width:3.75;stroke-linecap:round;stroke-linejoin:round"
         id="rect972"
         width="1252.1188"
         height="1173.7289"
         x="372.88138"
         y="-1612.2882"
         transform="scale(1,-1)" />
    </clipPath>
    <clipPath
       clipPathUnits="userSpaceOnUse"
       id="clipPath974">
      <rect
         style="fill:#808000;stroke:#000000;stroke-width:3.75;stroke-linecap:round;stroke-linejoin:round"
         id="rect976"
         width="1252.1188"
         height="1173.7289"
         x="372.88138"
         y="-1612.2882"
         transform="scale(1,-1)" />
    </clipPath>
    <clipPath
       clipPathUnits="userSpaceOnUse"
       id="clipPath4098">
      <rect
         style="fill:#008263;fill-opacity:1;stroke:#000000;stroke-width:3.75;stroke-linecap:round;stroke-linejoin:round"
         id="rect4100"
         width="402.54242"
         height="529.66107"
         x="817.79669"
         y="-1334.7458"
         transform="scale(1,-1)" />
    </clipPath>
    <clipPath
       clipPathUnits="userSpaceOnUse"
       id="clipPath4102">
      <rect
         style="fill:#008263;fill-opacity:1;stroke:#000000;stroke-width:3.75;stroke-linecap:round;stroke-linejoin:round"
         id="rect4104"
         width="402.54242"
         height="529.66107"
         x="817.79669"
         y="-1334.7458"
         transform="scale(1,-1)" />
    </clipPath>
  </defs>
  <sodipodi:namedview
     id="namedview150"
     pagecolor="#ffffff"
     bordercolor="#999999"
     borderopacity="1"
     inkscape:showpageshadow="0"
     inkscape:pageopacity="0"
     inkscape:pagecheckerboard="0"
     inkscape:deskcolor="#d1d1d1"
     showgrid="false"
     inkscape:zoom="0.35399998"
     inkscape:cx="128.53108"
     inkscape:cy="467.51415"
     inkscape:window-width="1792"
     inkscape:window-height="1120"
     inkscape:window-x="0"
     inkscape:window-y="0"
     inkscape:window-maximized="0"
     inkscape:current-layer="g156">
    <inkscape:page
       x="0"
       y="0"
       id="page154"
       width="536.72321"
       height="706.21472" />
  </sodipodi:namedview>
  <g
     id="g156"
     inkscape:groupmode="layer"
     inkscape:label="Page 1"
     transform="matrix(1.3333333,0,0,-1.3333333,-1090.3956,1779.6611)">
    <path
       d="M 0,0 H 2000 V 2000 H 0 Z"
       style="fill:none;fill-opacity:1;fill-rule:nonzero;stroke:none"
       id="path158"
       clip-path="url(#clipPath4102)" />
    <g
       id="g162"
       clip-path="url(#clipPath4098)"
       style="fill:#008263;fill-opacity:1"
       transform="translate(19.067798,2.1186442)">
      <g
         id="g168"
         transform="translate(1001.502,913.3662)"
         style="fill:#008263;fill-opacity:1">
        <path
           d="m 0,0 c -56.397,10.781 -112.077,21.425 -167.897,32.095 11.027,-48.689 49.326,-96.081 100.03,-115.695 -0.674,0.871 -1.192,1.541 -1.844,2.386 C -46.405,-54.062 -23.32,-27.168 0,0"
           style="fill:#008263;fill-opacity:1;fill-rule:nonzero;stroke:none"
           id="path170" />
      </g>
      <g
         id="g172"
         transform="translate(1162.3105,982.292)"
         style="fill:#008263;fill-opacity:1">
        <path
           d="m 0,0 c -3.258,-1.921 -7.006,-2.876 -11.19,-2.876 -0.641,0 -1.268,0.027 -1.895,0.055 -8.464,0.518 -15.824,3.121 -23.238,5.984 -20.391,7.878 -39.651,16.356 -61.785,26.319 17.091,-49.245 33.965,-97.89 50.867,-146.576 0.586,0.286 0.817,0.34 0.967,0.477 18.374,18.018 32.031,39.131 40.685,63.324 6.611,18.51 9.95,37.455 9.95,56.823 C 2.767,1.813 1.158,0.682 0,0"
           style="fill:#008263;fill-opacity:1;fill-rule:nonzero;stroke:none"
           id="path174" />
      </g>
      <g
         id="g176"
         transform="translate(1066.877,941.832)"
         style="fill:#008263;fill-opacity:1">
        <path
           d="m 0,0 c -1.275,3.678 -2.62,7.332 -4.114,11.504 -37.283,-43.418 -74.18,-86.385 -111.456,-129.795 10.809,-2.066 20.97,-4.933 31.302,-5.821 41.519,-3.576 79.345,7.044 113.465,30.99 2.061,1.446 2.221,2.655 1.449,4.866 C 20.377,-58.856 10.207,-29.422 0,0"
           style="fill:#008263;fill-opacity:1;fill-rule:nonzero;stroke:none"
           id="path178" />
      </g>
      <g
         id="g180"
         transform="translate(935.9443,946.9365)"
         style="fill:#008263;fill-opacity:1">
        <path
           d="m 0,0 c -6.638,17.991 -13.234,35.888 -19.817,53.743 -2.508,0.777 -5.084,1.948 -7.77,3.489 -9.541,5.452 -11.872,13.207 -12.417,17.337 -0.736,5.548 0.587,10.618 3.108,15.389 -10.932,-8.247 -21.563,-15.007 -32.848,-15.007 -8.668,0 -16.328,4.102 -21.549,11.558 -2.985,4.266 -4.702,8.314 -5.561,12.049 -8.833,-23.335 -12.253,-47.992 -10.141,-73.996 0.26,-3.218 1.24,-4.431 4.403,-5.017 C -72.934,13.998 -43.289,8.287 -13.657,2.617 -9.363,1.799 -5.084,0.981 0,0"
           style="fill:#008263;fill-opacity:1;fill-rule:nonzero;stroke:none"
           id="path182" />
      </g>
      <g
         id="g184"
         transform="translate(920.5967,1308.0063)"
         style="fill:#008263;fill-opacity:1">
        <path
           d="M 0,0 C 3.136,-4.838 18.374,-30.245 10.591,-56.523 5.93,-72.293 -5.86,-85.078 -24.506,-94.605 c 0,0 -0.027,-0.014 -0.055,-0.041 -0.095,-0.041 -0.177,-0.095 -0.258,-0.136 -0.082,-0.041 -0.178,-0.082 -0.26,-0.123 -0.067,-0.027 -0.136,-0.068 -0.204,-0.095 h 0.027 c -2.576,-1.363 -11.408,-5.861 -21.453,-9.064 -1.077,-0.354 -2.168,-0.682 -3.271,-0.981 -1.323,-2.304 -2.359,-4.676 -2.794,-6.897 1.526,0.368 3.216,0.627 5.097,0.709 21.154,0.995 42.839,7.687 63.816,14.161 l 5.329,1.649 c 29.863,9.923 60.04,10.686 68.586,10.686 1.185,0 2.016,-0.013 2.467,-0.027 0.885,0.027 2.017,0.027 2.548,0.027 8.546,0 38.668,-0.763 68.626,-10.727 15.076,-4.62 31.309,-9.404 47.964,-13.03 5.629,-1.227 10.687,-2.153 15.43,-2.835 2.521,-0.368 6.31,-0.913 9.949,-2.726 -0.027,3.108 -1.621,6.706 -3.68,10.1 -1.09,0.245 -2.153,0.491 -3.203,0.763 0.055,-0.095 0.11,-0.177 0.178,-0.272 -0.068,0.095 -0.137,0.177 -0.191,0.272 v 0.014 c -16.615,4.28 -29.958,13.261 -31.417,14.298 -0.028,0.013 -0.041,0.027 -0.069,0.041 -0.026,0.013 -0.026,0.027 -0.04,0.027 l -0.014,0.013 c -12.949,8.71 -21.385,19.491 -25.161,32.249 -7.795,26.292 7.442,51.712 10.59,56.55 l 0.164,0.259 1.65,2.535 C 180.011,2.263 173.592,-1.363 166.64,-8 147.912,-25.883 108.263,-30.135 92.017,-31.13 75.77,-30.135 36.119,-25.883 17.378,-8 10.441,-1.363 3.967,2.276 -1.812,2.794 l 1.635,-2.521 z"
           style="fill:#008263;fill-opacity:1;fill-rule:nonzero;stroke:none"
           id="path186" />
      </g>
      <g
         id="g188"
         transform="translate(861.4023,1086.752)"
         style="fill:#008263;fill-opacity:1">
        <path
           d="m 0,0 c 3.884,-1.771 8.355,-2.385 12.867,-1.513 3.108,0.6 6.379,1.459 9.745,2.467 6.27,1.895 12.867,4.348 19.245,6.761 15.92,6.037 30.6,11.912 36.202,8.641 C 91.389,8.587 65.533,-5.725 47.432,-7.36 c -0.368,-0.027 -0.736,-0.055 -1.104,-0.082 -4.825,-0.3 -11.939,-1.322 -19.463,-3.135 -20.691,-4.975 -44.38,-15.933 -31.54,-34.279 8.709,-12.444 24.098,-0.559 39.854,11.708 5.779,4.498 11.599,9.037 17.16,12.458 6.91,4.266 13.412,6.788 18.918,5.302 16.411,-4.416 1.745,-16.479 -10.29,-28.691 -9.569,-9.718 -17.474,-19.546 -6.706,-25.706 8.287,-4.73 12.458,-3.149 15.661,1.595 5.983,8.886 8.6,28.868 28.541,39.213 2.371,1.227 5.11,1.977 8.015,2.372 10.058,1.376 22.08,-1.5 27.873,-3.435 22.748,-7.592 44.61,-17.964 66.432,-27.846 3.529,-1.595 7.06,-3.189 10.604,-4.784 19.313,-8.696 38.709,-17.242 58.486,-24.875 6.064,-2.331 12.28,-4.62 18.769,-5.016 1.621,-0.095 3.352,-0.054 4.755,0.777 3.04,1.8 3.082,6.134 2.508,9.61 -0.19,1.172 -0.408,2.344 -0.667,3.488 -1.772,8.056 -4.975,15.43 -8.778,22.544 -5.439,10.209 -12.09,19.873 -17.445,30.259 -1.855,3.626 -3.517,7.292 -4.853,11.081 -3.285,9.364 -7.47,21.958 -9.037,34.375 -1.649,12.962 -0.45,25.747 7.592,34.484 6.379,6.923 16.043,9.99 21.549,17.882 2.848,4.061 4.797,8.668 6.202,13.398 2.29,7.728 1.458,8.887 -6.271,10.004 -5.533,0.791 -11.026,1.841 -16.478,3.026 -16.642,3.626 -33.039,8.396 -49.326,13.399 -32.876,10.958 -66.188,10.018 -66.515,9.99 h -0.3 c -0.327,0.014 -33.639,0.968 -66.418,-9.963 C 61.444,104.515 37.142,96.473 12.198,95.301 -3.707,94.564 25.038,75.851 29.005,73.424 37.905,68 48.059,63.802 56.469,57.641 c 2.427,-1.772 4.798,-3.68 7.305,-5.37 1.078,-0.736 2.195,-1.431 3.339,-2.058 4.267,-2.317 8.847,-3.026 13.535,-4.089 19.11,-4.293 37.605,-10.536 55.815,-17.651 4.565,-1.717 9.104,-3.53 13.589,-5.411 6.583,-2.753 13.071,-5.67 19.505,-8.709 15.974,-7.538 31.58,-15.852 47.09,-24.357 -13.342,7.237 -27.6,12.621 -41.653,18.318 -2.63,1.077 -5.288,2.126 -7.945,3.163 h -0.014 c -6.761,2.657 -13.589,5.192 -20.473,7.591 -15.047,5.248 -30.367,9.828 -45.851,13.467 -0.232,0.054 -0.477,0.123 -0.749,0.177 C 90.025,34.879 79.749,35.07 69.758,33.244 58.05,31.104 48.55,32.03 33.148,32.63 26.946,32.875 19.777,33.066 11.122,32.985 H 11.081 C 5.37,32.385 0.437,31.581 -3.599,30.34 -5.07,29.891 -6.474,29.264 -7.701,28.337 -11.449,25.475 -12.498,21.372 -12.172,17.119 -11.585,9.309 -6.638,2.999 0,0"
           style="fill:#008263;fill-opacity:1;fill-rule:nonzero;stroke:none"
           id="path190" />
      </g>
      <g
         id="g192"
         transform="translate(1137.2031,1287.8481)"
         style="fill:#008263;fill-opacity:1">
        <path
           d="M 0,0 C 1.132,0 27.206,-21.536 7.934,-48.741 -4.524,-32.862 0,0 0,0 m -35.56,-34.143 c 4.607,-15.511 17.555,-27.846 38.532,-36.706 0.328,-0.15 0.654,-0.286 0.995,-0.422 0.205,0.123 0.45,0.3 0.736,0.518 5.248,3.707 25.57,20.227 19.805,49 -6.011,24.819 -27.737,33.297 -40.822,36.16 l -1.676,0.341 v 0.013 c -3.844,0.75 -6.734,0.995 -7.933,1.077 -2.413,-3.721 -16.479,-26.879 -9.637,-49.981"
           style="fill:#008263;fill-opacity:1;fill-rule:nonzero;stroke:none"
           id="path194" />
      </g>
      <g
         id="g196"
         transform="translate(886.1953,1287.8481)"
         style="fill:#008263;fill-opacity:1">
        <path
           d="M 0,0 C 0,0 4.539,-32.862 -7.933,-48.741 -27.205,-21.536 -1.132,0 0,0 m -3.258,-70.494 c 0.463,-0.341 0.846,-0.586 1.105,-0.777 21.561,8.887 34.879,21.385 39.54,37.142 C 44.229,-11 30.163,12.117 27.75,15.838 26.538,15.756 23.634,15.511 19.804,14.761 L 18.128,14.407 C 5.043,11.531 -16.669,3.053 -22.708,-21.808 c -4.184,-20.908 5.439,-35.329 13.003,-43.07 2.617,-2.672 4.976,-4.553 6.447,-5.616"
           style="fill:#008263;fill-opacity:1;fill-rule:nonzero;stroke:none"
           id="path198" />
      </g>
      <g
         id="g200"
         transform="translate(511.0039,763.2969)"
         style="fill:#008263;fill-opacity:1">
        <path
           d="m 0,0 h 40.933 c 3.69,0 5.537,-1.411 5.537,-4.234 v -9.772 c 0,-3.257 -1.955,-4.886 -5.863,-4.886 h -6.84 c -3.475,-0.434 -5.212,-2.17 -5.212,-5.211 v -121.168 c 0,-6.443 -1.085,-9.662 -3.256,-9.662 0,-0.434 -1.304,-0.652 -3.909,-0.652 h -2.607 c -3.909,0 -5.862,1.593 -5.862,4.778 v 124.75 c 0,4.778 -1.593,7.165 -4.777,7.165 H 0 c -3.69,0 -5.536,2.389 -5.536,7.166 v 5.539 C -5.536,-2.063 -3.69,0 0,0"
           style="fill:#008263;fill-opacity:1;fill-rule:nonzero;stroke:none"
           id="path202" />
      </g>
      <g
         id="g204"
         transform="translate(589.2852,703.4736)"
         style="fill:#008263;fill-opacity:1">
        <path
           d="M 0,0 C 0,-5.646 1.847,-8.469 5.538,-8.469 H 9.12 c 4.777,0 8.144,2.715 10.098,8.143 v 3.583 c 0,1.955 0.109,4.127 0.326,6.515 l -0.326,1.303 c 0,0.651 0.109,0.976 0.326,0.976 -0.217,3.258 -0.326,5.646 -0.326,7.167 v 12.268 c -1.085,6.08 -4.126,9.119 -9.121,9.119 -0.145,0 -1.557,0.109 -4.233,0.327 C 1.955,40.932 0,38.979 0,35.069 Z m 4.561,60.149 c 10.06,0 16.139,-1.412 18.239,-4.235 7.962,-5.21 11.944,-15.163 11.944,-29.857 V 11.399 c 0,-14.764 -2.462,-23.416 -7.384,-25.948 -4.56,-4.342 -6.839,-7.274 -6.839,-8.794 v -3.258 c 3.402,-14.405 7.274,-28.265 11.618,-41.583 l 6.839,-23.777 c 0,-2.245 -1.629,-3.512 -4.885,-3.801 h -4.561 c -4.923,0 -7.384,2.677 -7.384,8.034 -1.518,5.285 -4.125,15.598 -7.816,30.944 -4.778,18.458 -7.165,27.975 -7.165,28.555 l -1.955,1.628 H 2.606 C 0.869,-27.47 0,-29.207 0,-31.812 v -56.567 c 0,-3.474 -0.868,-5.719 -2.605,-6.73 -1.956,-0.435 -3.367,-0.653 -4.236,-0.653 h -1.627 c -4.706,0 -7.057,2.569 -7.057,7.708 v 141.69 c 0,4.342 2.026,6.513 6.08,6.513 z"
           style="fill:#008263;fill-opacity:1;fill-rule:nonzero;stroke:none"
           id="path206" />
      </g>
      <g
         id="g208"
         transform="translate(649.4355,763.4062)"
         style="fill:#008263;fill-opacity:1">
        <path
           d="m 0,0 h 37.674 c 3.258,0 4.887,-1.847 4.887,-5.538 v -7.165 c 0,-4.126 -2.029,-6.19 -6.082,-6.19 l -1.954,-0.326 c -3.256,0.218 -5.97,0.326 -8.142,0.326 H 18.24 c -4.56,0 -6.841,-1.736 -6.841,-5.211 v -38 c 0,-4.342 2.389,-6.514 7.167,-6.514 h 18.782 c 3.475,0 5.213,-1.486 5.213,-4.452 0,-1.303 0.108,-3.258 0.325,-5.863 0,-5.428 -1.195,-8.143 -3.583,-8.143 0,-0.435 -1.268,-0.652 -3.801,-0.652 H 16.286 c -3.258,0 -4.887,-1.628 -4.887,-4.884 v -38.002 c 0,-3.907 1.955,-5.862 5.864,-5.862 h 20.411 c 3.258,0 4.887,-1.52 4.887,-4.56 v -8.794 c 0,-3.839 -2.355,-5.755 -7.059,-5.755 H 4.234 c -5.357,0 -8.035,1.916 -8.035,5.755 V -5.538 C -3.801,-1.847 -2.534,0 0,0"
           style="fill:#008263;fill-opacity:1;fill-rule:nonzero;stroke:none"
           id="path210" />
      </g>
      <g
         id="g212"
         transform="translate(726.3037,763.623)"
         style="fill:#008263;fill-opacity:1">
        <path
           d="m 0,0 c 3.618,0 5.79,-2.606 6.516,-7.816 l 2.931,-15.961 c 1.303,-5.212 3.219,-15.057 5.753,-29.532 3.693,-18.386 6.081,-29.64 7.167,-33.767 1.156,-1.737 1.916,-2.606 2.28,-2.606 h 0.326 c 1.519,0.579 2.279,3.076 2.279,7.493 v 77.954 c 0,2.823 1.954,4.235 5.863,4.235 h 1.303 c 4.778,0 7.165,-1.846 7.165,-5.538 v -143.315 c 0,-4.708 -2.278,-7.058 -6.839,-7.058 h -3.258 c -4.56,0 -6.839,1.917 -6.839,5.756 -5.863,28.011 -10.496,51.534 -13.897,70.572 -1.159,5.355 -2.571,8.033 -4.234,8.033 H 6.189 c -1.302,0 -1.954,-3.763 -1.954,-11.291 v -67.314 c 0,-3.839 -2.172,-5.756 -6.515,-5.756 h -1.627 c -4.779,0 -7.167,2.242 -7.167,6.732 V -6.514 c 0,4.342 2.063,6.514 6.189,6.514 z"
           style="fill:#008263;fill-opacity:1;fill-rule:nonzero;stroke:none"
           id="path214" />
      </g>
      <g
         id="g216"
         transform="translate(828.0381,763.623)"
         style="fill:#008263;fill-opacity:1">
        <path
           d="m 0,0 c 4.125,0 6.188,-1.412 6.188,-4.235 0.217,-0.217 0.326,-1.085 0.326,-2.604 0,-8.036 -0.868,-12.054 -2.606,-12.054 l -3.256,-0.325 h -4.56 c -5.141,0 -7.71,-1.193 -7.71,-3.582 -0.217,-1.086 -0.326,-2.172 -0.326,-3.258 v -125.075 c 0,-3.185 -2.279,-4.778 -6.839,-4.778 h -1.629 c -4.777,0 -7.165,2.242 -7.165,6.732 v 125.076 c 0,3.257 -2.715,4.885 -8.144,4.885 h -3.909 c -3.907,0 -5.862,1.738 -5.862,5.212 v 7.167 c 0,4.559 1.629,6.839 4.885,6.839 z"
           style="fill:#008263;fill-opacity:1;fill-rule:nonzero;stroke:none"
           id="path218" />
      </g>
      <g
         id="g220"
         transform="translate(890.248,763.2969)"
         style="fill:#008263;fill-opacity:1">
        <path
           d="m 0,0 h 40.934 c 3.69,0 5.536,-1.411 5.536,-4.234 v -9.772 c 0,-3.257 -1.954,-4.886 -5.863,-4.886 h -6.84 c -3.475,-0.434 -5.212,-2.17 -5.212,-5.211 v -121.168 c 0,-6.443 -1.084,-9.662 -3.256,-9.662 0,-0.434 -1.303,-0.652 -3.909,-0.652 h -2.606 c -3.909,0 -5.862,1.593 -5.862,4.778 v 124.75 c 0,4.778 -1.594,7.165 -4.778,7.165 H 0 c -3.69,0 -5.536,2.389 -5.536,7.166 v 5.539 C -5.536,-2.063 -3.69,0 0,0"
           style="fill:#008263;fill-opacity:1;fill-rule:nonzero;stroke:none"
           id="path222" />
      </g>
      <g
         id="g224"
         transform="translate(967.8789,731.4854)"
         style="fill:#008263;fill-opacity:1">
        <path
           d="m 0,0 v -92.612 c 0.289,-8.47 1.374,-12.703 3.257,-12.703 0,-0.725 1.52,-1.376 4.56,-1.955 h 4.885 c 5.43,1.521 8.145,5.102 8.145,10.749 V 4.451 c -1.016,6.733 -2.971,10.098 -5.865,10.098 0,0.362 -2.062,0.579 -6.189,0.651 C 3.148,14.042 0.325,11.219 0.325,6.731 0.108,5.283 0,3.04 0,0 m 11.073,34.418 c 7.529,0 13.573,-3.258 18.133,-9.772 4.561,-3.186 6.841,-11.726 6.841,-25.624 V -93.59 c 0,-13.827 -3.801,-23.233 -11.401,-28.228 0,-1.303 -4.307,-2.715 -12.92,-4.236 h -1.629 c -4.633,0 -10.171,1.739 -16.611,5.213 -3.257,3.257 -4.886,5.717 -4.886,7.382 -3.04,6.441 -4.561,13.5 -4.561,21.173 V 4.451 c 1.303,9.917 3.258,16.539 5.863,19.87 5.284,6.731 12.233,10.097 20.846,10.097 z"
           style="fill:#008263;fill-opacity:1;fill-rule:nonzero;stroke:none"
           id="path226" />
      </g>
      <g
         id="g228"
         transform="translate(1024.7705,763.623)"
         style="fill:#008263;fill-opacity:1">
        <path
           d="m 0,0 h 3.584 c 4.343,0 6.515,-1.955 6.515,-5.862 1.086,-7.892 2.063,-16.686 2.93,-26.385 2.1,-17.083 3.583,-30.4 4.451,-39.954 l 2.281,-18.458 c 1.158,-13.463 2.242,-21.679 3.258,-24.646 0.939,-1.52 1.699,-2.28 2.28,-2.28 2.17,0 3.907,8.975 5.211,26.926 0.579,3.981 1.338,11.002 2.28,21.064 2.171,17.008 3.691,30.761 4.561,41.257 0.795,3.619 1.554,10.351 2.28,20.195 C 40.353,-2.715 42.09,0 44.841,0 h 6.189 c 4.053,0 6.079,-2.389 6.079,-7.165 l 2.932,-27.577 3.584,-31.921 2.28,-18.784 c 1.157,-15.417 2.676,-26.24 4.559,-32.464 l 0.651,-0.325 h 1.304 c 1.809,0 3.221,7.562 4.234,22.692 l 2.607,21.822 c 3.908,36.916 6.73,60.946 8.468,72.093 C 88.957,-0.543 90.911,0 93.591,0 h 3.474 c 3.474,-0.146 5.211,-1.231 5.211,-3.258 -0.651,-10.134 -3.547,-35.576 -8.685,-76.325 -0.652,-1.955 -1.303,-7.384 -1.954,-16.286 -0.869,-2.172 -1.738,-8.324 -2.607,-18.458 -0.651,-1.593 -1.411,-7.348 -2.28,-17.264 -0.651,-2.317 -1.411,-7.854 -2.28,-16.612 -0.65,-4.923 -2.605,-7.382 -5.863,-7.382 H 65.254 c -3.909,0 -5.864,3.11 -5.864,9.337 -1.303,8.47 -2.389,17.589 -3.258,27.36 -0.796,1.954 -1.519,8.323 -2.17,19.11 -0.868,4.342 -1.737,10.531 -2.606,18.566 -1.303,2.823 -2.28,4.233 -2.931,4.233 -2.246,-1.231 -4.09,-10.676 -5.538,-28.337 -0.58,-2.822 -1.232,-8.651 -1.953,-17.48 -0.799,-4.054 -1.776,-11.329 -2.932,-21.823 -0.726,-6.079 -1.594,-9.229 -2.606,-9.445 -0.869,-1.015 -2.172,-1.521 -3.91,-1.521 H 18.784 c -4.055,0 -6.079,3.22 -6.079,9.662 -2.39,16.069 -4.995,35.358 -7.818,57.87 l -2.281,15.2 C -0.868,-45.275 -3.473,-22.295 -5.21,-3.909 -5.21,-1.303 -3.473,0 0,0"
           style="fill:#008263;fill-opacity:1;fill-rule:nonzero;stroke:none"
           id="path230" />
      </g>
      <g
         id="g232"
         transform="translate(1155.0586,763.623)"
         style="fill:#008263;fill-opacity:1">
        <path
           d="m 0,0 c 3.618,0 5.79,-2.606 6.515,-7.816 l 2.931,-15.961 c 1.304,-5.212 3.22,-15.057 5.754,-29.532 3.692,-18.386 6.081,-29.64 7.167,-33.767 1.155,-1.737 1.916,-2.606 2.28,-2.606 h 0.326 c 1.518,0.579 2.279,3.076 2.279,7.493 v 77.954 c 0,2.823 1.954,4.235 5.863,4.235 h 1.303 c 4.778,0 7.165,-1.846 7.165,-5.538 v -143.315 c 0,-4.708 -2.278,-7.058 -6.839,-7.058 h -3.258 c -4.56,0 -6.839,1.917 -6.839,5.756 -5.864,28.011 -10.496,51.534 -13.897,70.572 -1.159,5.355 -2.571,8.033 -4.235,8.033 H 6.189 c -1.303,0 -1.955,-3.763 -1.955,-11.291 v -67.314 c 0,-3.839 -2.171,-5.756 -6.514,-5.756 h -1.627 c -4.779,0 -7.167,2.242 -7.167,6.732 V -6.514 c 0,4.342 2.063,6.514 6.189,6.514 z"
           style="fill:#008263;fill-opacity:1;fill-rule:nonzero;stroke:none"
           id="path234" />
      </g>
      <g
         id="g236"
         transform="translate(1245.9346,765.9033)"
         style="fill:#008263;fill-opacity:1">
        <path
           d="m 0,0 c 11.146,0 18.964,-5.212 23.453,-15.635 2.171,-7.599 3.257,-13.862 3.257,-18.783 v -10.423 c 0,-4.344 -1.846,-6.513 -5.537,-6.513 h -3.584 c -4.561,0 -6.839,1.518 -6.839,4.558 -0.217,0 -0.435,1.195 -0.651,3.584 0.216,3.258 0.325,6.298 0.325,9.119 v 0.543 c 0,8.106 -1.52,12.449 -4.561,13.029 0,0.723 -1.519,1.158 -4.56,1.303 -7.095,0 -10.64,-1.846 -10.64,-5.536 -0.434,-1.086 -0.651,-3.584 -0.651,-7.493 v -11.616 c 0,-6.587 1.086,-11.039 3.258,-13.355 0.07,-3.114 7.31,-11.33 21.713,-24.645 4.561,-4.635 7.166,-8.651 7.818,-12.052 2.606,-6.589 3.909,-12.993 3.909,-19.218 v -12.268 c 0,-11.873 -3.04,-21.716 -9.121,-29.533 -6.804,-3.691 -12.45,-5.538 -16.938,-5.538 h -1.629 c -8.395,1.377 -12.593,2.679 -12.593,3.91 -6.514,5.5 -9.772,10.023 -9.772,13.572 -1.954,4.921 -2.931,13.498 -2.931,25.731 0,4.921 1.954,7.384 5.863,7.384 l 2.932,0.325 c 4.994,0 7.491,-2.245 7.491,-6.732 v -14.983 c 0,-5.284 2.569,-8.758 7.71,-10.422 h 4.232 c 5.43,0 8.145,3.257 8.145,9.77 0.216,1.81 0.325,4.957 0.325,9.447 0,2.17 -0.109,7.889 -0.325,17.154 0,1.52 -1.846,5.103 -5.538,10.75 0,2.242 -5.718,8.213 -17.156,17.913 -5.21,6.441 -8.141,10.424 -8.793,11.943 -3.258,7.817 -4.886,17.046 -4.886,27.688 0,7.165 1.194,14.619 3.583,22.365 C -16.975,-4.887 -9.41,0 0,0"
           style="fill:#008263;fill-opacity:1;fill-rule:nonzero;stroke:none"
           id="path238" />
      </g>
      <g
         id="g240"
         transform="translate(1299.2432,763.4062)"
         style="fill:#008263;fill-opacity:1">
        <path
           d="m 0,0 h 37.675 c 3.257,0 4.886,-1.847 4.886,-5.538 v -7.165 c 0,-4.126 -2.028,-6.19 -6.081,-6.19 l -1.955,-0.326 c -3.255,0.218 -5.97,0.326 -8.142,0.326 h -8.142 c -4.56,0 -6.841,-1.736 -6.841,-5.211 v -38 c 0,-4.342 2.389,-6.514 7.166,-6.514 h 18.783 c 3.474,0 5.212,-1.486 5.212,-4.452 0,-1.303 0.109,-3.258 0.326,-5.863 0,-5.428 -1.195,-8.143 -3.583,-8.143 0,-0.435 -1.269,-0.652 -3.801,-0.652 H 16.286 c -3.257,0 -4.886,-1.628 -4.886,-4.884 v -38.002 c 0,-3.907 1.954,-5.862 5.864,-5.862 h 20.411 c 3.257,0 4.886,-1.52 4.886,-4.56 v -8.794 c 0,-3.839 -2.354,-5.755 -7.058,-5.755 H 4.235 c -5.357,0 -8.035,1.916 -8.035,5.755 V -5.538 C -3.8,-1.847 -2.534,0 0,0"
           style="fill:#008263;fill-opacity:1;fill-rule:nonzero;stroke:none"
           id="path242" />
      </g>
      <g
         id="g244"
         transform="translate(1376.1123,763.623)"
         style="fill:#008263;fill-opacity:1">
        <path
           d="m 0,0 c 3.618,0 5.79,-2.606 6.515,-7.816 l 2.931,-15.961 c 1.304,-5.212 3.22,-15.057 5.754,-29.532 3.692,-18.386 6.081,-29.64 7.167,-33.767 1.155,-1.737 1.916,-2.606 2.28,-2.606 h 0.326 c 1.518,0.579 2.279,3.076 2.279,7.493 v 77.954 c 0,2.823 1.954,4.235 5.863,4.235 h 1.303 c 4.778,0 7.165,-1.846 7.165,-5.538 v -143.315 c 0,-4.708 -2.278,-7.058 -6.839,-7.058 h -3.258 c -4.56,0 -6.839,1.917 -6.839,5.756 -5.864,28.011 -10.496,51.534 -13.897,70.572 -1.159,5.355 -2.571,8.033 -4.235,8.033 H 6.189 c -1.303,0 -1.955,-3.763 -1.955,-11.291 v -67.314 c 0,-3.839 -2.171,-5.756 -6.514,-5.756 h -1.627 c -4.779,0 -7.167,2.242 -7.167,6.732 V -6.514 c 0,4.342 2.063,6.514 6.189,6.514 z"
           style="fill:#008263;fill-opacity:1;fill-rule:nonzero;stroke:none"
           id="path246" />
      </g>
      <g
         id="g248"
         transform="translate(1458.9541,738.6514)"
         style="fill:#008263;fill-opacity:1">
        <path
           d="m 0,0 v -105.208 c 0,-4.342 1.955,-6.513 5.864,-6.513 h 6.079 c 5.139,0 7.962,3.799 8.47,11.4 v 5.862 l -0.326,1.954 c 0.218,0.362 0.326,0.905 0.326,1.629 v 0.978 c 0,0.723 -0.108,1.265 -0.326,1.628 l 0.326,1.955 v 0.977 c 0,0.795 -0.108,1.194 -0.326,1.194 l 0.326,2.281 v 10.096 l -0.326,1.955 c 0.218,0.361 0.326,0.904 0.326,1.628 v 0.978 c 0,0.722 -0.108,1.265 -0.326,1.627 l 0.326,1.955 v 0.977 c 0,0.869 -0.108,1.303 -0.326,1.303 l 0.326,2.281 v 10.422 l -0.326,1.954 c 0.218,0.362 0.326,0.904 0.326,1.629 v 0.869 c 0,0.723 -0.108,1.264 -0.326,1.628 l 0.326,1.956 v 0.976 c 0,0.869 -0.108,1.304 -0.326,1.304 l 0.326,2.278 v 10.424 l -0.326,1.953 c 0.218,0.362 0.326,0.905 0.326,1.629 v 0.978 c 0,0.723 -0.108,1.265 -0.326,1.628 l 0.326,1.955 v 0.977 c 0,0.868 -0.108,1.303 -0.326,1.303 l 0.326,2.28 v 1.303 c 0,8.394 -0.977,13.572 -2.932,15.526 C 15.38,5.211 11.726,5.862 6.514,5.862 2.172,5.862 0,3.909 0,0 m -11.399,24.755 h 23.668 c 5.716,0 11.254,-2.607 16.612,-7.818 4.344,-6.154 6.514,-12.233 6.514,-18.24 0.289,-4.489 0.505,-6.732 0.651,-6.732 l -0.326,-2.278 v -15.31 c 0,-2.245 0.109,-3.982 0.326,-5.212 -0.217,-1.23 -0.326,-2.969 -0.326,-5.212 v -12.594 c 0,-2.244 0.109,-3.981 0.326,-5.211 -0.217,-1.232 -0.326,-2.969 -0.326,-5.211 v -13.355 c 0,-1.737 0.109,-3.149 0.326,-4.235 -0.217,-1.303 -0.326,-2.823 -0.326,-4.559 v -20.738 c 0,-5.792 -1.627,-11.872 -4.885,-18.24 -4.488,-7.095 -12.269,-10.64 -23.344,-10.64 H -9.445 c -4.561,0 -6.841,1.629 -6.841,4.886 V 19.542 c 0,3.475 1.629,5.213 4.887,5.213"
           style="fill:#008263;fill-opacity:1;fill-rule:nonzero;stroke:none"
           id="path250" />
      </g>
      <g
         id="g252"
         transform="translate(621.5205,538.3018)"
         style="fill:#008263;fill-opacity:1">
        <path
           d="M 0,0 H 15.527 C 15.831,1.914 15.309,3.523 13.962,4.827 12.612,6.132 10.785,6.785 8.482,6.785 6.351,6.785 4.501,6.208 2.936,5.057 1.371,3.902 0.392,2.219 0,0 m 8.808,-19.051 c -4.133,0 -7.526,1.413 -10.177,4.241 -2.653,2.828 -3.982,6.437 -3.982,10.831 0,4.348 1.361,7.881 4.08,10.601 2.717,2.717 5.904,4.077 9.557,4.077 3.522,0 6.403,-1.022 8.645,-3.066 2.239,-2.045 3.359,-4.676 3.359,-7.895 0,-0.826 -0.13,-1.89 -0.392,-3.195 H -0.456 c -0.088,-1.349 0.021,-2.654 0.326,-3.916 0.304,-1.262 0.836,-2.489 1.599,-3.686 0.76,-1.197 1.925,-2.152 3.49,-2.87 1.564,-0.717 3.414,-1.077 5.546,-1.077 1.608,0 3.282,0.349 5.022,1.044 1.739,0.696 3.153,1.566 4.242,2.61 v -4.371 c -2.741,-2.218 -6.394,-3.328 -10.961,-3.328"
           style="fill:#008263;fill-opacity:1;fill-rule:nonzero;stroke:none"
           id="path254" />
      </g>
      <g
         id="g256"
         transform="translate(650.0967,520.0342)"
         style="fill:#008263;fill-opacity:1">
        <path
           d="M 0,0 11.386,14.342 0.651,28.185 h 5.481 l 8.076,-10.291 8.169,10.291 h 5.218 L 16.862,14.509 28.248,0 H 22.507 L 14.044,10.914 5.48,0 Z"
           style="fill:#008263;fill-opacity:1;fill-rule:nonzero;stroke:none"
           id="path258" />
      </g>
      <g
         id="g260"
         transform="translate(695.3076,526.2002)"
         style="fill:#008263;fill-opacity:1">
        <path
           d="m 0,0 c 1.87,-1.98 4.175,-2.97 6.915,-2.97 2.74,0 5.045,0.99 6.915,2.97 1.87,1.978 2.807,4.62 2.807,7.927 0,3.304 -0.937,5.947 -2.807,7.927 -1.87,1.977 -4.175,2.967 -6.915,2.967 C 4.175,18.821 1.87,17.831 0,15.854 -1.87,13.874 -2.806,11.231 -2.806,7.927 -2.806,4.62 -1.87,1.978 0,0 m -7.437,-18.887 v 40.906 h 4.305 l 0.195,-5.09 c 1.176,1.826 2.741,3.263 4.698,4.306 1.958,1.044 4.089,1.566 6.393,1.566 3.827,0 7.025,-1.436 9.591,-4.306 2.566,-2.87 3.85,-6.393 3.85,-10.568 0,-4.176 -1.284,-7.699 -3.85,-10.57 -2.566,-2.871 -5.764,-4.306 -9.591,-4.306 -4.523,0 -8.067,1.74 -10.633,5.22 v -17.158 z"
           style="fill:#008263;fill-opacity:1;fill-rule:nonzero;stroke:none"
           id="path262" />
      </g>
      <path
         d="m 728.579,559.18 h 4.958 v -39.146 h -4.958 z"
         style="fill:#008263;fill-opacity:1;fill-rule:nonzero;stroke:none"
         id="path264" />
      <g
         id="g266"
         transform="translate(752.7178,526.166)"
         style="fill:#008263;fill-opacity:1">
        <path
           d="m 0,0 c 1.914,-2.13 4.436,-3.195 7.567,-3.195 3.132,0 5.644,1.065 7.536,3.195 1.892,2.132 2.837,4.785 2.837,7.961 0,3.173 -0.945,5.827 -2.837,7.958 -1.892,2.131 -4.404,3.198 -7.536,3.198 C 4.436,19.117 1.914,18.05 0,15.919 -1.915,13.788 -2.871,11.134 -2.871,7.961 -2.871,4.785 -1.915,2.132 0,0 m 7.567,-7.175 c -4.48,0 -8.166,1.467 -11.058,4.404 -2.893,2.935 -4.337,6.511 -4.337,10.732 0,4.219 1.444,7.796 4.337,10.732 2.892,2.935 6.578,4.404 11.058,4.404 4.437,0 8.1,-1.481 10.993,-4.438 2.892,-2.958 4.338,-6.523 4.338,-10.698 0,-4.221 -1.446,-7.797 -4.338,-10.732 -2.893,-2.937 -6.556,-4.404 -10.993,-4.404"
           style="fill:#008263;fill-opacity:1;fill-rule:nonzero;stroke:none"
           id="path268" />
      </g>
      <g
         id="g270"
         transform="translate(786.9687,520.0342)"
         style="fill:#008263;fill-opacity:1">
        <path
           d="m 0,0 v 28.185 h 4.305 l 0.326,-5.416 c 0.957,1.783 2.448,3.261 4.469,4.437 2.022,1.175 4.186,1.761 6.491,1.761 V 23.618 C 12.852,24.095 10.394,23.66 8.22,22.312 6.045,20.965 4.958,19.115 4.958,16.767 V 0 Z"
           style="fill:#008263;fill-opacity:1;fill-rule:nonzero;stroke:none"
           id="path272" />
      </g>
      <g
         id="g274"
         transform="translate(816.5205,538.3018)"
         style="fill:#008263;fill-opacity:1">
        <path
           d="M 0,0 H 15.527 C 15.831,1.914 15.309,3.523 13.962,4.827 12.612,6.132 10.785,6.785 8.482,6.785 6.351,6.785 4.501,6.208 2.937,5.057 1.371,3.902 0.392,2.219 0,0 m 8.808,-19.051 c -4.133,0 -7.526,1.413 -10.177,4.241 -2.653,2.828 -3.981,6.437 -3.981,10.831 0,4.348 1.36,7.881 4.079,10.601 2.717,2.717 5.904,4.077 9.557,4.077 3.522,0 6.403,-1.022 8.645,-3.066 2.239,-2.045 3.359,-4.676 3.359,-7.895 0,-0.826 -0.13,-1.89 -0.392,-3.195 H -0.456 c -0.088,-1.349 0.021,-2.654 0.326,-3.916 0.304,-1.262 0.836,-2.489 1.599,-3.686 0.76,-1.197 1.925,-2.152 3.49,-2.87 1.564,-0.717 3.414,-1.077 5.546,-1.077 1.608,0 3.282,0.349 5.022,1.044 1.739,0.696 3.153,1.566 4.242,2.61 v -4.371 c -2.741,-2.218 -6.394,-3.328 -10.961,-3.328"
           style="fill:#008263;fill-opacity:1;fill-rule:nonzero;stroke:none"
           id="path276" />
      </g>
      <path
         d="m 868.191,564.79 h 3.262 v -51.019 h -3.262 z"
         style="fill:#008263;fill-opacity:1;fill-rule:nonzero;stroke:none"
         id="path278" />
      <path
         d="m 904.07,559.18 h 4.959 v -39.146 h -4.959 z"
         style="fill:#008263;fill-opacity:1;fill-rule:nonzero;stroke:none"
         id="path280" />
      <g
         id="g282"
         transform="translate(926.1221,538.3018)"
         style="fill:#008263;fill-opacity:1">
        <path
           d="M 0,0 H 15.526 C 15.83,1.914 15.309,3.523 13.962,4.827 12.611,6.132 10.785,6.785 8.481,6.785 6.35,6.785 4.501,6.208 2.936,5.057 1.37,3.902 0.392,2.219 0,0 m 8.808,-19.051 c -4.134,0 -7.526,1.413 -10.178,4.241 -2.653,2.828 -3.981,6.437 -3.981,10.831 0,4.348 1.36,7.881 4.08,10.601 2.717,2.717 5.903,4.077 9.557,4.077 3.522,0 6.402,-1.022 8.644,-3.066 2.239,-2.045 3.359,-4.676 3.359,-7.895 0,-0.826 -0.13,-1.89 -0.392,-3.195 H -0.456 c -0.089,-1.349 0.02,-2.654 0.325,-3.916 0.304,-1.262 0.837,-2.489 1.6,-3.686 0.759,-1.197 1.924,-2.152 3.489,-2.87 1.565,-0.717 3.414,-1.077 5.546,-1.077 1.608,0 3.283,0.349 5.022,1.044 1.74,0.696 3.154,1.566 4.242,2.61 v -4.371 c -2.741,-2.218 -6.394,-3.328 -10.96,-3.328"
           style="fill:#008263;fill-opacity:1;fill-rule:nonzero;stroke:none"
           id="path284" />
      </g>
      <g
         id="g286"
         transform="translate(964.6133,526.2002)"
         style="fill:#008263;fill-opacity:1">
        <path
           d="m 0,0 c 1.87,-1.98 4.175,-2.97 6.915,-2.97 2.74,0 5.045,0.99 6.915,2.97 1.87,1.978 2.807,4.62 2.807,7.927 0,3.304 -0.937,5.947 -2.807,7.927 -1.87,1.977 -4.175,2.967 -6.915,2.967 C 4.175,18.821 1.87,17.831 0,15.854 -1.87,13.874 -2.805,11.231 -2.805,7.927 -2.805,4.62 -1.87,1.978 0,0 m 5.676,-6.949 c -3.827,0 -7.025,1.435 -9.59,4.306 -2.566,2.871 -3.849,6.394 -3.849,10.57 0,4.175 1.283,7.698 3.849,10.568 2.565,2.87 5.763,4.306 9.59,4.306 2.305,0 4.436,-0.522 6.393,-1.566 1.957,-1.043 3.524,-2.48 4.698,-4.306 l 0.195,5.09 h 4.307 V -6.166 h -4.307 l -0.195,5.089 C 15.593,-2.904 14.026,-4.339 12.069,-5.382 10.112,-6.428 7.981,-6.949 5.676,-6.949"
           style="fill:#008263;fill-opacity:1;fill-rule:nonzero;stroke:none"
           id="path288" />
      </g>
      <g
         id="g290"
         transform="translate(999.1914,520.0342)"
         style="fill:#008263;fill-opacity:1">
        <path
           d="m 0,0 v 28.185 h 4.305 l 0.326,-5.416 c 0.957,1.783 2.448,3.261 4.469,4.437 2.022,1.175 4.186,1.761 6.491,1.761 V 23.618 C 12.851,24.095 10.394,23.66 8.22,22.312 6.045,20.965 4.958,19.115 4.958,16.767 V 0 Z"
           style="fill:#008263;fill-opacity:1;fill-rule:nonzero;stroke:none"
           id="path292" />
      </g>
      <g
         id="g294"
         transform="translate(1024.96,520.0342)"
         style="fill:#008263;fill-opacity:1">
        <path
           d="m 0,0 v 28.185 h 4.305 l 0.326,-5.416 c 1.087,1.783 2.61,3.261 4.566,4.437 1.959,1.175 4.089,1.761 6.394,1.761 6.785,0 10.179,-4.067 10.179,-12.2 V 0 h -4.958 v 16.311 c 0,3.043 -0.556,5.208 -1.666,6.492 -1.107,1.28 -2.75,1.925 -4.924,1.925 -2.175,0 -4.264,-0.807 -6.264,-2.416 -2,-1.609 -3,-3.501 -3,-5.675 L 4.958,0 Z"
           style="fill:#008263;fill-opacity:1;fill-rule:nonzero;stroke:none"
           id="path296" />
      </g>
      <path
         d="m 1083.283,564.79 h 3.262 v -51.019 h -3.262 z"
         style="fill:#008263;fill-opacity:1;fill-rule:nonzero;stroke:none"
         id="path298" />
      <g
         id="g300"
         transform="translate(1132.2764,519.251)"
         style="fill:#008263;fill-opacity:1">
        <path
           d="m 0,0 c -4.305,0 -7.829,1.381 -10.568,4.144 -2.741,2.76 -4.112,6.338 -4.112,10.732 0,4.392 1.371,7.97 4.112,10.732 2.739,2.761 6.263,4.142 10.568,4.142 3.827,0 7.111,-0.957 9.852,-2.87 v -4.501 c -2.393,2.218 -5.524,3.325 -9.395,3.325 -3.001,0 -5.447,-1.02 -7.34,-3.065 -1.891,-2.045 -2.838,-4.631 -2.838,-7.763 0,-3.176 0.947,-5.774 2.838,-7.797 1.893,-2.022 4.339,-3.034 7.34,-3.034 3.871,0 7.002,1.109 9.395,3.328 V 2.872 C 7.111,0.957 3.827,0 0,0"
           style="fill:#008263;fill-opacity:1;fill-rule:nonzero;stroke:none"
           id="path302" />
      </g>
      <g
         id="g304"
         transform="translate(1159.6133,526.166)"
         style="fill:#008263;fill-opacity:1">
        <path
           d="m 0,0 c 1.913,-2.13 4.436,-3.195 7.567,-3.195 3.131,0 5.644,1.065 7.535,3.195 1.892,2.132 2.837,4.785 2.837,7.961 0,3.173 -0.945,5.827 -2.837,7.958 -1.891,2.131 -4.404,3.198 -7.535,3.198 C 4.436,19.117 1.913,18.05 0,15.919 -1.915,13.788 -2.872,11.134 -2.872,7.961 -2.872,4.785 -1.915,2.132 0,0 m 7.567,-7.175 c -4.48,0 -8.166,1.467 -11.058,4.404 -2.893,2.935 -4.338,6.511 -4.338,10.732 0,4.219 1.445,7.796 4.338,10.732 2.892,2.935 6.578,4.404 11.058,4.404 4.437,0 8.1,-1.481 10.993,-4.438 2.892,-2.958 4.338,-6.523 4.338,-10.698 0,-4.221 -1.446,-7.797 -4.338,-10.732 -2.893,-2.937 -6.556,-4.404 -10.993,-4.404"
           style="fill:#008263;fill-opacity:1;fill-rule:nonzero;stroke:none"
           id="path306" />
      </g>
      <g
         id="g308"
         transform="translate(1193.8633,520.0342)"
         style="fill:#008263;fill-opacity:1">
        <path
           d="m 0,0 v 28.185 h 4.306 l 0.326,-5.416 c 1.086,1.783 2.609,3.261 4.566,4.437 1.958,1.175 4.089,1.761 6.394,1.761 6.785,0 10.179,-4.067 10.179,-12.2 V 0 h -4.959 v 16.311 c 0,3.043 -0.555,5.208 -1.665,6.492 -1.107,1.28 -2.751,1.925 -4.924,1.925 -2.175,0 -4.264,-0.807 -6.264,-2.416 -2,-1.609 -3,-3.501 -3,-5.675 L 4.959,0 Z"
           style="fill:#008263;fill-opacity:1;fill-rule:nonzero;stroke:none"
           id="path310" />
      </g>
      <g
         id="g312"
         transform="translate(1241.3555,519.1875)"
         style="fill:#008263;fill-opacity:1">
        <path
           d="m 0,0 c -1.783,0 -3.544,0.238 -5.284,0.717 -1.74,0.478 -3.023,0.955 -3.85,1.435 l -1.303,0.784 0.978,3.913 c 3.132,-1.956 6.329,-2.936 9.591,-2.936 4.175,0 6.262,1.457 6.262,4.371 0,1.175 -0.586,2.153 -1.761,2.936 -1.175,0.783 -2.98,1.478 -5.414,2.089 -2.915,0.738 -5.1,1.836 -6.558,3.294 -1.457,1.457 -2.184,3.141 -2.184,5.056 0,2.348 0.89,4.305 2.673,5.871 1.785,1.566 4.329,2.349 7.633,2.349 1.392,0 2.816,-0.195 4.274,-0.587 1.458,-0.393 2.555,-0.784 3.296,-1.174 L 9.525,27.53 8.548,23.747 c -2.307,1.522 -4.895,2.282 -7.765,2.282 -3.826,0 -5.74,-1.239 -5.74,-3.718 0,-2.175 2.021,-3.763 6.066,-4.761 6.568,-1.611 9.852,-4.351 9.852,-8.221 0,-2.915 -1,-5.199 -3,-6.851 C 5.959,0.826 3.306,0 0,0"
           style="fill:#008263;fill-opacity:1;fill-rule:nonzero;stroke:none"
           id="path314" />
      </g>
      <g
         id="g316"
         transform="translate(1267.5176,538.3018)"
         style="fill:#008263;fill-opacity:1">
        <path
           d="M 0,0 H 15.527 C 15.831,1.914 15.309,3.523 13.962,4.827 12.612,6.132 10.785,6.785 8.481,6.785 6.351,6.785 4.501,6.208 2.936,5.057 1.371,3.902 0.392,2.219 0,0 m 8.808,-19.051 c -4.133,0 -7.526,1.413 -10.177,4.241 -2.653,2.828 -3.982,6.437 -3.982,10.831 0,4.348 1.361,7.881 4.08,10.601 2.717,2.717 5.904,4.077 9.557,4.077 3.522,0 6.403,-1.022 8.644,-3.066 2.239,-2.045 3.36,-4.676 3.36,-7.895 0,-0.826 -0.13,-1.89 -0.392,-3.195 H -0.456 c -0.088,-1.349 0.02,-2.654 0.326,-3.916 0.303,-1.262 0.836,-2.489 1.599,-3.686 0.759,-1.197 1.925,-2.152 3.489,-2.87 1.565,-0.717 3.415,-1.077 5.547,-1.077 1.608,0 3.282,0.349 5.022,1.044 1.739,0.696 3.153,1.566 4.242,2.61 v -4.371 c -2.741,-2.218 -6.394,-3.328 -10.961,-3.328"
           style="fill:#008263;fill-opacity:1;fill-rule:nonzero;stroke:none"
           id="path318" />
      </g>
      <g
         id="g320"
         transform="translate(1299.877,520.0342)"
         style="fill:#008263;fill-opacity:1">
        <path
           d="m 0,0 v 28.185 h 4.306 l 0.325,-5.416 c 0.957,1.783 2.448,3.261 4.469,4.437 2.023,1.175 4.186,1.761 6.492,1.761 V 23.618 C 12.852,24.095 10.394,23.66 8.221,22.312 6.045,20.965 4.959,19.115 4.959,16.767 V 0 Z"
           style="fill:#008263;fill-opacity:1;fill-rule:nonzero;stroke:none"
           id="path322" />
      </g>
      <g
         id="g324"
         transform="translate(1335.7568,519.9687)"
         style="fill:#008263;fill-opacity:1">
        <path
           d="m 0,0 -12.396,28.25 h 5.089 L 1.83,7.104 10.896,28.25 h 4.827 L 3.328,0 Z"
           style="fill:#008263;fill-opacity:1;fill-rule:nonzero;stroke:none"
           id="path326" />
      </g>
      <g
         id="g328"
         transform="translate(1364.0068,538.3018)"
         style="fill:#008263;fill-opacity:1">
        <path
           d="M 0,0 H 15.527 C 15.831,1.914 15.31,3.523 13.963,4.827 12.612,6.132 10.786,6.785 8.482,6.785 6.351,6.785 4.501,6.208 2.937,5.057 1.371,3.902 0.392,2.219 0,0 m 8.808,-19.051 c -4.133,0 -7.525,1.413 -10.177,4.241 -2.653,2.828 -3.981,6.437 -3.981,10.831 0,4.348 1.36,7.881 4.079,10.601 2.717,2.717 5.904,4.077 9.557,4.077 3.523,0 6.403,-1.022 8.645,-3.066 2.239,-2.045 3.359,-4.676 3.359,-7.895 0,-0.826 -0.13,-1.89 -0.392,-3.195 H -0.456 c -0.088,-1.349 0.021,-2.654 0.326,-3.916 0.304,-1.262 0.837,-2.489 1.599,-3.686 0.76,-1.197 1.925,-2.152 3.49,-2.87 1.564,-0.717 3.414,-1.077 5.546,-1.077 1.608,0 3.282,0.349 5.022,1.044 1.739,0.696 3.153,1.566 4.242,2.61 v -4.371 c -2.741,-2.218 -6.394,-3.328 -10.961,-3.328"
           style="fill:#008263;fill-opacity:1;fill-rule:nonzero;stroke:none"
           id="path330" />
      </g>
      <g
         id="g332"
         transform="translate(557.1582,1084.1763)"
         style="fill:#008263;fill-opacity:1">
        <path
           d="M 0,0 0.971,0.34 C 0.996,0.501 0.698,0.727 0.076,1.018 l -33.074,16.303 c -0.9,0.45 -1.65,0.722 -2.246,0.816 -1.465,0.233 -2.335,-0.518 -2.61,-2.25 -0.124,-0.785 -0.43,-1.424 -0.92,-1.914 -0.491,-0.492 -1.017,-0.693 -1.58,-0.603 -0.669,0.106 -1.153,0.486 -1.447,1.142 -0.295,0.656 -0.374,1.416 -0.237,2.28 0.063,0.405 0.29,1.13 0.678,2.177 0.388,1.046 0.671,2.136 0.85,3.271 0.115,0.728 0.187,1.873 0.211,3.434 0.026,1.559 0.098,2.718 0.218,3.474 0.29,1.836 1.093,2.65 2.405,2.442 0.697,-0.11 1.174,-0.484 1.429,-1.121 0.257,-0.637 0.34,-1.24 0.251,-1.808 -0.198,-1.245 0.078,-2.53 0.827,-3.856 0.748,-1.325 1.87,-2.356 3.365,-3.092 C -13.072,12.781 2.636,5.12 15.323,-1.272 l 1.628,-0.757 c 0.827,-0.381 1.185,-0.924 1.074,-1.627 -0.059,-0.379 -0.278,-0.705 -0.655,-0.978 -0.375,-0.274 -1.219,-0.515 -2.527,-0.724 l -41.28,-6.803 c -0.941,-0.156 -1.421,-0.302 -1.443,-0.438 -0.022,-0.136 0.393,-0.409 1.243,-0.822 l 37.391,-17.758 c 1.213,-0.577 1.938,-1.036 2.175,-1.375 0.238,-0.341 0.327,-0.698 0.267,-1.072 -0.089,-0.563 -0.331,-0.917 -0.729,-1.06 -0.397,-0.143 -1.237,-0.319 -2.519,-0.528 l -52.302,-8.575 c -1.568,-0.278 -2.776,-0.69 -3.625,-1.235 -0.849,-0.546 -1.463,-1.399 -1.839,-2.56 -0.379,-1.161 -0.726,-1.897 -1.041,-2.208 -0.316,-0.31 -0.843,-0.407 -1.58,-0.29 -1.396,0.221 -1.941,1.29 -1.638,3.207 0.102,0.649 0.361,1.528 0.772,2.64 0.411,1.111 0.735,2.41 0.97,3.895 0.18,1.135 0.247,2.384 0.199,3.749 -0.049,1.363 -0.038,2.261 0.031,2.694 0.154,0.972 0.483,1.751 0.989,2.335 0.504,0.585 1.105,0.822 1.802,0.711 1.287,-0.203 1.821,-1.259 1.601,-3.166 -0.178,-1.47 0.194,-2.278 1.115,-2.424 0.434,-0.068 1.283,0.019 2.542,0.264 5.655,1.159 17.952,3.212 36.887,6.159 0.657,0.116 0.996,0.24 1.018,0.375 0.021,0.133 -0.24,0.326 -0.783,0.577 l -39.101,18.794 c -0.855,0.385 -1.408,0.695 -1.662,0.929 -0.254,0.235 -0.349,0.556 -0.285,0.963 0.098,0.623 0.76,1.032 1.983,1.227 z"
           style="fill:#008263;fill-opacity:1;fill-rule:nonzero;stroke:none"
           id="path334" />
      </g>
      <g
         id="g336"
         transform="translate(536.832,1146.103)"
         style="fill:#008263;fill-opacity:1">
        <path
           d="m 0,0 c -1.504,0.496 -2.633,0.543 -3.384,0.141 -0.75,-0.402 -1.414,-1.02 -1.991,-1.853 -0.577,-0.835 -1.055,-1.384 -1.435,-1.648 -0.378,-0.265 -0.912,-0.285 -1.595,-0.059 -0.396,0.13 -0.667,0.414 -0.815,0.852 -0.149,0.437 -0.145,0.89 0.008,1.358 0.266,0.804 0.799,1.981 1.597,3.532 0.801,1.551 1.342,2.754 1.624,3.612 0.257,0.778 0.517,1.966 0.784,3.563 0.268,1.596 0.524,2.771 0.773,3.524 0.428,1.298 1.181,1.77 2.262,1.414 0.658,-0.217 1.05,-0.534 1.175,-0.95 0.127,-0.417 0.114,-1.178 -0.034,-2.282 C -1.179,10.098 -0.884,9.164 -0.144,8.4 0.598,7.637 1.825,6.973 3.537,6.408 L 43.934,-6.906 c 0.754,-0.248 1.479,-0.293 2.179,-0.134 0.699,0.159 1.41,0.79 2.134,1.894 0.724,1.103 1.306,1.726 1.747,1.869 0.441,0.142 0.899,0.136 1.374,-0.02 0.947,-0.312 1.156,-1.274 0.625,-2.884 -0.239,-0.727 -0.713,-1.752 -1.423,-3.072 -0.711,-1.322 -1.184,-2.345 -1.424,-3.073 -0.222,-0.675 -0.464,-1.739 -0.728,-3.193 -0.262,-1.454 -0.51,-2.531 -0.739,-3.231 -0.644,-1.949 -1.583,-2.718 -2.823,-2.311 -0.341,0.114 -0.611,0.317 -0.805,0.613 -0.196,0.295 -0.195,1.109 0.002,2.445 0.194,1.335 -0.087,2.358 -0.844,3.069 -0.759,0.711 -1.695,1.251 -2.811,1.619 z"
           style="fill:#008263;fill-opacity:1;fill-rule:nonzero;stroke:none"
           id="path338" />
      </g>
      <g
         id="g340"
         transform="translate(607.9717,1195.5439)"
         style="fill:#008263;fill-opacity:1">
        <path
           d="m 0,0 c 0.435,0.918 0.599,1.82 0.491,2.707 -0.108,0.886 -0.834,1.821 -2.176,2.807 -1.342,0.986 -2.08,1.737 -2.21,2.254 -0.131,0.518 -0.076,1.036 0.17,1.557 0.177,0.371 0.557,0.661 1.141,0.87 0.584,0.208 1.21,0.154 1.88,-0.163 C 1.449,9.011 3.675,8.14 5.97,7.416 7.307,6.782 7.607,5.85 6.874,4.622 6.377,3.826 5.711,2.55 4.878,0.792 l -13.71,-28.938 c -1.079,-2.279 -2.207,-3.14 -3.384,-2.583 -0.774,0.368 -1.172,0.807 -1.19,1.316 -0.02,0.51 0.158,1.191 0.53,2.045 0.665,1.657 0.713,2.862 0.145,3.617 -0.568,0.752 -1.334,1.359 -2.301,1.817 L -54,-3.473 c -0.915,0.434 -1.845,0.602 -2.787,0.502 -0.941,-0.099 -2.002,-0.787 -3.183,-2.062 -1.18,-1.276 -2.046,-1.972 -2.596,-2.091 -0.551,-0.118 -1.083,-0.055 -1.597,0.189 -0.295,0.139 -0.494,0.46 -0.6,0.965 -0.106,0.504 -0.037,1.015 0.209,1.535 0.164,0.346 0.788,1.072 1.873,2.177 1.086,1.106 2.009,2.462 2.77,4.069 0.948,2.002 1.591,4.013 1.927,6.033 0.335,2.02 0.625,3.29 0.871,3.809 0.269,0.569 0.71,0.973 1.319,1.214 0.609,0.241 1.159,0.246 1.649,0.014 0.416,-0.198 0.706,-0.493 0.864,-0.887 0.159,-0.394 0.091,-1.188 -0.205,-2.382 -0.384,-1.516 -0.476,-2.671 -0.276,-3.463 0.36,-1.353 1.518,-2.493 3.475,-3.42 l 37.183,-17.617 c 1.859,-0.88 3.285,-1.199 4.279,-0.956 0.994,0.242 1.756,0.922 2.284,2.038 z"
           style="fill:#008263;fill-opacity:1;fill-rule:nonzero;stroke:none"
           id="path342" />
      </g>
      <g
         id="g344"
         transform="translate(625.8037,1235.9668)"
         style="fill:#008263;fill-opacity:1">
        <path
           d="m 0,0 c 1.31,-0.896 2.726,-0.983 4.247,-0.26 1.523,0.722 3.385,2.695 5.588,5.915 2.389,3.491 3.744,6.442 4.066,8.851 0.521,4.105 -0.265,8.262 -2.357,12.473 -2.093,4.21 -4.877,7.506 -8.356,9.885 -3.003,2.055 -6.006,3.734 -9.007,5.039 -3.003,1.305 -6.025,2.025 -9.068,2.159 -3.042,0.133 -6.426,-0.49 -10.153,-1.868 -3.727,-1.378 -7.11,-4.289 -10.152,-8.734 -2.916,-4.262 -3.448,-7.027 -1.596,-8.294 z m -36.97,37.194 c 2.32,3.392 5.909,6.539 10.767,9.443 4.858,2.902 10.129,4.334 15.813,4.297 C -4.703,50.896 0.729,49.105 5.908,45.563 12.966,40.735 17.28,34.595 18.856,27.142 20.433,19.689 18.853,12.502 14.118,5.582 L 0.821,-13.561 c -0.357,-0.521 -0.79,-0.872 -1.3,-1.053 -0.51,-0.183 -0.995,-0.117 -1.453,0.197 -0.388,0.266 -0.624,0.608 -0.705,1.03 -0.082,0.421 0.195,1.228 0.829,2.421 0.633,1.194 0.88,2.063 0.739,2.608 -0.141,0.544 -0.471,0.995 -0.992,1.35 l -38.513,26.347 c -1.018,0.696 -1.864,1.034 -2.54,1.015 -0.676,-0.019 -1.181,-0.188 -1.515,-0.507 -0.334,-0.319 -0.865,-1.011 -1.592,-2.074 -0.45,-0.656 -0.86,-1.023 -1.231,-1.1 -0.373,-0.077 -0.788,0.041 -1.246,0.354 -0.94,0.642 -0.899,1.711 0.123,3.203 z"
           style="fill:#008263;fill-opacity:1;fill-rule:nonzero;stroke:none"
           id="path346" />
      </g>
      <g
         id="g348"
         transform="translate(688.7354,1307.1504)"
         style="fill:#008263;fill-opacity:1">
        <path
           d="M 0,0 C 0.697,0.739 1.131,1.546 1.303,2.422 1.475,3.298 1.074,4.413 0.102,5.765 -0.87,7.117 -1.339,8.06 -1.305,8.592 c 0.035,0.533 0.249,1.009 0.645,1.427 0.282,0.299 0.733,0.457 1.352,0.475 0.62,0.017 1.2,-0.227 1.737,-0.735 C 4.162,8.123 6.01,6.605 7.969,5.208 9.044,4.192 9.043,3.213 7.966,2.271 7.246,1.668 6.219,0.66 4.884,-0.754 l -21.983,-23.285 c -1.73,-1.834 -3.068,-2.304 -4.014,-1.411 -0.624,0.59 -0.866,1.13 -0.728,1.619 0.14,0.491 0.519,1.084 1.138,1.782 1.143,1.369 1.561,2.501 1.255,3.394 -0.308,0.892 -0.849,1.705 -1.626,2.44 l -31.356,29.6 c -0.736,0.696 -1.569,1.142 -2.496,1.339 -0.927,0.195 -2.148,-0.131 -3.664,-0.979 -1.517,-0.849 -2.556,-1.243 -3.116,-1.185 -0.561,0.057 -1.046,0.282 -1.46,0.673 -0.237,0.223 -0.328,0.59 -0.273,1.102 0.054,0.512 0.28,0.978 0.674,1.395 0.263,0.279 1.081,0.776 2.453,1.493 1.374,0.715 2.672,1.72 3.891,3.013 1.522,1.611 2.754,3.325 3.696,5.143 0.945,1.817 1.614,2.936 2.008,3.354 0.433,0.457 0.976,0.705 1.629,0.746 0.655,0.041 1.18,-0.125 1.573,-0.498 0.336,-0.315 0.518,-0.686 0.547,-1.109 0.03,-0.424 -0.28,-1.158 -0.929,-2.202 -0.835,-1.324 -1.28,-2.393 -1.333,-3.208 -0.078,-1.398 0.672,-2.84 2.247,-4.326 l 29.921,-28.246 c 1.494,-1.411 2.751,-2.155 3.771,-2.231 1.021,-0.077 1.956,0.334 2.804,1.233 z"
           style="fill:#008263;fill-opacity:1;fill-rule:nonzero;stroke:none"
           id="path350" />
      </g>
      <g
         id="g352"
         transform="translate(687.2871,1369.8003)"
         style="fill:#008263;fill-opacity:1">
        <path
           d="M 0,0 C -1.011,1.221 -1.94,1.861 -2.79,1.919 -3.639,1.979 -4.531,1.808 -5.463,1.409 -6.395,1.01 -7.092,0.799 -7.554,0.776 -8.016,0.754 -8.477,1.021 -8.937,1.577 c -0.264,0.32 -0.344,0.705 -0.237,1.154 0.107,0.449 0.351,0.831 0.73,1.145 0.653,0.54 1.73,1.254 3.232,2.142 1.501,0.887 2.601,1.619 3.295,2.194 0.633,0.523 1.485,1.39 2.56,2.6 1.076,1.21 1.918,2.068 2.529,2.574 1.053,0.871 1.942,0.87 2.667,-0.006 0.442,-0.534 0.606,-1.011 0.49,-1.43 C 6.215,11.531 5.8,10.892 5.086,10.035 4.372,9.178 4.126,8.23 4.348,7.189 4.568,6.149 5.254,4.934 6.403,3.546 L 33.53,-29.218 c 0.506,-0.61 1.097,-1.034 1.774,-1.272 0.676,-0.237 1.614,-0.081 2.813,0.469 1.2,0.549 2.025,0.767 2.475,0.653 0.45,-0.113 0.834,-0.362 1.152,-0.747 0.637,-0.769 0.303,-1.695 -1.004,-2.775 -0.589,-0.489 -1.537,-1.104 -2.84,-1.845 -1.303,-0.741 -2.25,-1.356 -2.838,-1.844 -0.548,-0.454 -1.32,-1.226 -2.316,-2.317 -0.997,-1.091 -1.778,-1.872 -2.347,-2.343 -1.579,-1.308 -2.785,-1.46 -3.617,-0.455 -0.229,0.277 -0.348,0.593 -0.357,0.947 -0.008,0.353 0.427,1.043 1.302,2.07 0.875,1.026 1.182,2.043 0.919,3.048 -0.264,1.006 -0.77,1.961 -1.519,2.866 z"
           style="fill:#008263;fill-opacity:1;fill-rule:nonzero;stroke:none"
           id="path354" />
      </g>
      <g
         id="g356"
         transform="translate(744.6699,1421.853)"
         style="fill:#008263;fill-opacity:1">
        <path
           d="M 0,0 C 0.897,0.581 1.526,0.818 1.89,0.71 2.254,0.603 2.742,0.201 3.356,-0.495 3.971,-1.191 4.568,-1.849 5.148,-2.469 5.73,-3.089 6.163,-3.617 6.445,-4.053 7.338,-5.434 7.223,-6.489 6.095,-7.218 5.819,-7.397 5.482,-7.445 5.086,-7.361 c -0.397,0.083 -1.13,0.532 -2.197,1.348 -1.07,0.816 -1.896,1.26 -2.485,1.333 -0.587,0.074 -1.111,-0.038 -1.571,-0.337 l -9.475,-6.135 c -1.635,-1.06 -2.563,-1.978 -2.78,-2.754 -0.218,-0.776 -0.036,-1.611 0.543,-2.506 l 4.703,-7.262 c 0.996,-1.537 1.921,-2.486 2.775,-2.845 0.854,-0.359 2.123,0.007 3.806,1.097 l 9.198,5.957 c 0.737,0.478 1.105,1.148 1.102,2.012 -0.003,0.863 -0.265,1.697 -0.785,2.502 -0.255,0.392 -0.329,0.784 -0.226,1.178 0.106,0.393 0.341,0.71 0.709,0.948 0.391,0.254 0.819,0.326 1.279,0.219 0.462,-0.109 0.856,-0.415 1.183,-0.919 0.312,-0.482 0.727,-1.199 1.244,-2.15 0.519,-0.95 0.963,-1.711 1.334,-2.285 0.565,-0.872 1.216,-1.752 1.955,-2.642 0.74,-0.888 1.176,-1.436 1.309,-1.642 0.326,-0.505 0.458,-0.998 0.395,-1.478 -0.065,-0.481 -0.292,-0.848 -0.684,-1.101 -0.413,-0.268 -0.894,-0.295 -1.442,-0.078 -0.549,0.216 -1.046,0.67 -1.493,1.36 -1.072,1.656 -2.6,1.841 -4.584,0.558 l -9.164,-5.935 c -1.151,-0.747 -1.813,-1.419 -1.982,-2.018 -0.168,-0.599 -0.037,-1.231 0.394,-1.897 L 11.448,-53.37 c 0.58,-0.896 1.314,-1.538 2.201,-1.925 0.889,-0.387 2.158,-0.331 3.81,0.168 1.652,0.499 2.73,0.673 3.237,0.522 0.506,-0.152 0.903,-0.448 1.189,-0.89 0.512,-0.791 0.299,-1.493 -0.643,-2.102 -0.459,-0.298 -1.453,-0.688 -2.981,-1.172 -1.527,-0.483 -2.911,-1.127 -4.151,-1.929 -2.181,-1.413 -3.849,-2.762 -5.005,-4.049 C 7.951,-66.034 7.168,-66.81 6.754,-67.078 5.331,-68 4.235,-67.867 3.466,-66.68 c -0.195,0.303 -0.247,0.649 -0.157,1.038 0.09,0.389 0.652,1.121 1.685,2.198 1.034,1.076 1.581,2.008 1.643,2.797 0.059,0.788 -0.14,1.539 -0.602,2.251 l -20.397,31.495 c -2.066,3.19 -3.563,5.339 -4.493,6.446 -0.93,1.108 -1.726,1.668 -2.386,1.681 -0.661,0.011 -1.601,-0.377 -2.821,-1.167 -0.828,-0.536 -1.559,-0.805 -2.196,-0.804 -0.638,0 -1.099,0.222 -1.386,0.663 -0.269,0.419 -0.308,0.906 -0.113,1.462 0.195,0.556 0.592,1.027 1.191,1.415 z"
           style="fill:#008263;fill-opacity:1;fill-rule:nonzero;stroke:none"
           id="path358" />
      </g>
      <g
         id="g360"
         transform="translate(826.2002,1400.4854)"
         style="fill:#008263;fill-opacity:1">
        <path
           d="M 0,0 C 1.271,0.592 2.079,1.374 2.428,2.349 2.775,3.323 2.709,4.329 2.226,5.366 1.788,6.305 1.65,7.15 1.814,7.903 1.977,8.655 2.345,9.165 2.917,9.431 3.487,9.698 4.087,9.659 4.715,9.317 5.343,8.975 5.859,8.369 6.266,7.5 6.67,6.63 7.145,5.709 7.687,4.739 8.231,3.768 8.59,3.096 8.763,2.723 9.238,1.704 9.404,0.974 9.263,0.53 9.122,0.087 8.455,-0.413 7.264,-0.969 l -30.143,-14.046 c -2.112,-0.984 -3.633,-1.498 -4.564,-1.544 -0.932,-0.045 -1.545,0.252 -1.844,0.892 -0.47,1.006 0.005,1.84 1.421,2.5 1.812,0.845 2.856,1.686 3.131,2.525 0.273,0.838 0.116,1.891 -0.475,3.158 l -15.886,34.092 c -1.713,3.676 -2.91,6.081 -3.589,7.216 -0.679,1.134 -1.346,1.754 -1.999,1.858 -0.653,0.103 -1.724,-0.192 -3.215,-0.886 -0.895,-0.418 -1.663,-0.569 -2.304,-0.456 -0.644,0.113 -1.086,0.433 -1.333,0.96 -0.222,0.477 -0.207,0.996 0.046,1.556 0.253,0.561 0.701,0.992 1.347,1.293 l 28.69,13.369 c 1.142,0.532 1.998,0.643 2.565,0.334 0.569,-0.31 1.148,-0.887 1.738,-1.73 0.588,-0.845 1.376,-2.323 2.359,-4.434 0.451,-0.969 0.268,-1.644 -0.552,-2.025 -0.472,-0.221 -0.956,-0.271 -1.45,-0.151 -0.493,0.12 -1.229,0.66 -2.208,1.62 -0.977,0.96 -1.771,1.495 -2.384,1.606 -0.612,0.11 -1.217,0.027 -1.814,-0.251 L -35.43,41.719 c -1.716,-0.8 -2.687,-1.547 -2.909,-2.241 -0.222,-0.695 -0.105,-1.528 0.347,-2.499 l 3.673,-7.88 c 0.858,-1.844 1.673,-2.942 2.443,-3.294 0.772,-0.354 1.914,-0.176 3.435,0.532 l 9.933,4.629 c 0.821,0.382 1.29,1.001 1.407,1.857 0.116,0.855 -0.016,1.693 -0.398,2.513 -0.197,0.422 -0.188,0.857 0.026,1.305 0.215,0.447 0.558,0.781 1.031,1.001 0.497,0.232 0.981,0.262 1.454,0.09 0.472,-0.171 0.847,-0.554 1.126,-1.149 0.242,-0.52 0.509,-1.308 0.804,-2.36 0.295,-1.055 0.586,-1.89 0.875,-2.51 0.438,-0.942 1.005,-1.883 1.702,-2.825 0.696,-0.943 1.096,-1.524 1.199,-1.747 0.265,-0.57 0.3,-1.127 0.099,-1.673 -0.199,-0.545 -0.547,-0.933 -1.045,-1.164 -0.521,-0.244 -1.063,-0.217 -1.625,0.081 -0.561,0.298 -1.027,0.843 -1.397,1.638 -0.44,0.944 -1.003,1.499 -1.686,1.664 -0.682,0.166 -1.596,-0.019 -2.742,-0.552 l -9.86,-4.594 c -0.896,-0.417 -1.545,-0.94 -1.951,-1.567 -0.405,-0.627 -0.445,-1.289 -0.121,-1.984 l 11.094,-23.808 c 0.579,-1.243 1.285,-1.927 2.116,-2.054 0.831,-0.127 2.018,0.17 3.561,0.889 z"
           style="fill:#008263;fill-opacity:1;fill-rule:nonzero;stroke:none"
           id="path362" />
      </g>
      <g
         id="g364"
         transform="translate(885.9189,1472.1045)"
         style="fill:#008263;fill-opacity:1">
        <path
           d="m 0,0 c -0.452,2.143 -2.127,2.909 -5.023,2.297 -1.824,-0.385 -2.862,0.025 -3.118,1.232 -0.243,1.152 0.546,1.922 2.37,2.307 1.046,0.221 2.236,0.353 3.571,0.398 1.335,0.044 2.445,0.16 3.331,0.347 0.749,0.158 2.017,0.587 3.803,1.287 1.784,0.699 3.963,1.321 6.538,1.864 6.327,1.338 11.494,0.911 15.501,-1.281 4.006,-2.193 6.434,-5.3 7.285,-9.322 0.668,-3.163 0.395,-5.755 -0.82,-7.777 -1.213,-2.021 -3.071,-3.983 -5.574,-5.884 -2.501,-1.901 -5.995,-3.325 -10.479,-4.274 -2.606,-0.55 -4.072,-0.056 -4.397,1.482 -0.083,0.397 0.029,0.761 0.339,1.089 0.31,0.329 0.774,0.559 1.392,0.69 0.135,0.028 0.585,0.095 1.348,0.2 0.764,0.105 1.455,0.224 2.073,0.354 2.903,0.615 5.113,2.019 6.629,4.216 1.514,2.197 1.932,4.904 1.252,8.122 -0.64,3.029 -2.374,5.449 -5.198,7.262 C 17.997,6.42 14.608,6.909 10.659,6.074 9.233,5.773 8.261,5.364 7.739,4.848 7.216,4.332 6.959,3.69 6.967,2.923 6.974,2.155 7.15,0.955 7.495,-0.677 l 9.023,-42.685 c 0.441,-2.088 2.016,-2.846 4.723,-2.274 1.314,0.278 2.23,0.291 2.745,0.04 0.515,-0.251 0.842,-0.709 0.982,-1.371 0.23,-1.088 -0.752,-1.863 -2.947,-2.327 -0.696,-0.147 -2.053,-0.168 -4.076,-0.063 -2.02,0.104 -3.298,0.101 -3.833,-0.012 -0.803,-0.17 -1.932,-0.675 -3.391,-1.515 -1.458,-0.84 -2.494,-1.325 -3.11,-1.455 -2.301,-0.488 -3.594,-0.055 -3.882,1.296 -0.078,0.371 -0.016,0.709 0.186,1.015 0.201,0.305 1.034,0.675 2.496,1.111 1.462,0.435 2.357,1.141 2.682,2.12 0.325,0.978 0.363,2.057 0.114,3.236 z"
           style="fill:#008263;fill-opacity:1;fill-rule:nonzero;stroke:none"
           id="path366" />
      </g>
      <g
         id="g368"
         transform="translate(997.4795,1440.8428)"
         style="fill:#008263;fill-opacity:1">
        <path
           d="M 0,0 C 0.05,-0.93 0.325,-1.751 0.829,-2.466 1.334,-3.179 2.294,-3.691 3.71,-4 5.125,-4.31 5.978,-4.61 6.269,-4.9 6.557,-5.191 6.714,-5.558 6.736,-6.001 6.758,-6.39 6.49,-6.778 5.937,-7.169 5.382,-7.559 4.667,-7.777 3.794,-7.823 3.111,-7.859 1.979,-7.789 0.395,-7.611 c -1.584,0.177 -2.65,0.251 -3.197,0.222 -0.818,-0.043 -1.939,-0.218 -3.36,-0.526 -1.422,-0.308 -2.433,-0.478 -3.032,-0.51 -1.968,-0.103 -2.981,0.441 -3.044,1.632 -0.036,0.691 0.11,1.157 0.441,1.397 0.33,0.24 0.957,0.459 1.88,0.658 0.921,0.2 1.669,0.596 2.242,1.19 0.571,0.594 0.81,1.822 0.711,3.686 l -1.298,24.659 c -0.045,0.878 -0.349,1.549 -0.91,2.014 -0.561,0.465 -1.79,0.648 -3.684,0.548 L -30.892,26.41 c -1.538,-0.081 -2.528,0.029 -2.969,0.332 -0.444,0.302 -0.682,0.779 -0.717,1.428 -0.033,0.65 0.223,1.139 0.769,1.467 0.547,0.326 1.562,0.53 3.046,0.608 l 19.477,1.025 c 1.072,0.056 1.749,0.263 2.033,0.62 0.283,0.357 0.4,1.013 0.35,1.968 -0.317,6.033 -0.584,9.679 -0.801,10.941 -0.219,1.262 -1.408,2.123 -3.574,2.584 -1.14,0.273 -1.849,0.582 -2.127,0.928 -0.28,0.346 -0.432,0.768 -0.458,1.266 -0.018,0.333 0.171,0.668 0.563,1.008 0.393,0.34 0.875,0.525 1.449,0.555 1.065,0.056 2.369,0.007 3.91,-0.144 1.541,-0.153 2.763,-0.205 3.664,-0.157 0.927,0.048 2.063,0.211 3.404,0.488 1.34,0.276 2.626,0.446 3.854,0.511 C 2.292,51.907 2.976,51.4 3.032,50.321 3.069,49.628 2.929,49.162 2.611,48.923 2.295,48.684 1.676,48.458 0.755,48.245 -0.167,48.032 -0.928,47.602 -1.523,46.954 -2.121,46.305 -2.368,44.996 -2.264,43.027 Z m -35.097,-1.847 c 0.045,-0.848 0.31,-1.602 0.799,-2.261 0.487,-0.661 1.44,-1.18 2.861,-1.557 1.418,-0.378 2.281,-0.725 2.585,-1.043 0.305,-0.316 0.469,-0.697 0.493,-1.141 0.02,-0.387 -0.247,-0.777 -0.801,-1.167 -0.556,-0.39 -1.27,-0.609 -2.144,-0.654 -0.682,-0.037 -1.815,0.035 -3.399,0.212 -1.584,0.177 -2.649,0.251 -3.195,0.223 -0.819,-0.044 -1.94,-0.219 -3.362,-0.527 -1.421,-0.308 -2.431,-0.478 -3.032,-0.509 -1.967,-0.104 -2.979,0.44 -3.042,1.63 -0.038,0.693 0.102,1.158 0.419,1.397 0.316,0.239 0.924,0.457 1.818,0.655 0.896,0.197 1.622,0.593 2.182,1.184 0.558,0.592 0.789,1.817 0.69,3.677 l -2.272,43.191 c -0.049,0.93 -0.298,1.76 -0.749,2.49 -0.45,0.73 -1.361,1.244 -2.735,1.542 -1.375,0.298 -2.208,0.62 -2.5,0.966 -0.292,0.346 -0.453,0.768 -0.479,1.267 -0.018,0.333 0.17,0.668 0.563,1.009 0.392,0.34 0.876,0.526 1.45,0.556 1.064,0.056 2.367,0.008 3.909,-0.144 1.541,-0.152 2.763,-0.205 3.664,-0.157 0.928,0.049 2.063,0.211 3.403,0.488 1.341,0.276 2.626,0.446 3.855,0.511 1.311,0.069 1.996,-0.437 2.052,-1.517 0.037,-0.693 -0.111,-1.166 -0.44,-1.419 -0.33,-0.254 -0.956,-0.508 -1.874,-0.762 -0.92,-0.254 -1.672,-0.705 -2.255,-1.352 -0.583,-0.649 -0.826,-1.901 -0.728,-3.761 z"
           style="fill:#008263;fill-opacity:1;fill-rule:nonzero;stroke:none"
           id="path370" />
      </g>
      <g
         id="g372"
         transform="translate(1055.041,1431.9609)"
         style="fill:#008263;fill-opacity:1">
        <path
           d="m 0,0 c 5.122,-0.639 9.533,-0.042 13.234,1.792 3.701,1.833 6.494,4.312 8.378,7.438 1.883,3.125 3.169,7.438 3.856,12.94 1.186,9.504 0.104,17.017 -3.245,22.538 C 18.871,50.229 13.806,53.414 7.021,54.26 0.02,55.134 -5.778,53.237 -10.372,48.569 -14.967,43.901 -17.706,38.027 -18.59,30.946 -20.935,12.155 -14.739,1.84 0,0 M 7.479,57.931 C 16.997,56.744 24.067,52.547 28.692,45.342 33.316,38.136 35.121,30.469 34.105,22.338 33.355,16.328 31.194,11.02 27.623,6.412 24.052,1.803 19.766,-1.224 14.767,-2.671 9.766,-4.118 4.602,-4.51 -0.729,-3.844 c -8.673,1.083 -15.516,5.002 -20.528,11.758 -5.012,6.757 -6.936,14.785 -5.775,24.085 0.606,4.867 2.485,9.521 5.636,13.96 3.15,4.44 7.227,7.736 12.232,9.886 5.005,2.151 10.552,2.847 16.643,2.086"
           style="fill:#008263;fill-opacity:1;fill-rule:nonzero;stroke:none"
           id="path374" />
      </g>
      <g
         id="g376"
         transform="translate(1154.7949,1468.2544)"
         style="fill:#008263;fill-opacity:1">
        <path
           d="m 0,0 c 0.894,-0.261 1.343,-1.406 1.349,-3.435 0.006,-2.029 -0.226,-3.846 -0.694,-5.45 -0.47,-1.605 -1.223,-2.255 -2.263,-1.951 -0.374,0.109 -0.679,0.325 -0.917,0.651 -0.237,0.325 -0.416,1.278 -0.538,2.86 -0.121,1.582 -0.637,2.783 -1.55,3.603 -0.912,0.821 -1.998,1.415 -3.256,1.783 -1.783,0.521 -3.194,0.484 -4.236,-0.109 -1.041,-0.593 -1.833,-1.821 -2.378,-3.683 l -12.22,-41.803 c -0.184,-0.631 -0.157,-1.244 0.083,-1.841 0.238,-0.597 0.912,-1.25 2.018,-1.957 1.106,-0.708 1.753,-1.233 1.938,-1.576 0.185,-0.344 0.227,-0.688 0.127,-1.034 -0.405,-1.384 -1.328,-1.865 -2.773,-1.443 -0.788,0.231 -1.907,0.686 -3.361,1.368 -1.453,0.682 -2.546,1.13 -3.281,1.345 -0.683,0.199 -1.709,0.393 -3.078,0.578 -1.37,0.187 -2.397,0.38 -3.079,0.579 -0.815,0.239 -1.455,0.628 -1.923,1.169 -0.469,0.541 -0.607,1.144 -0.412,1.81 0.094,0.32 0.282,0.576 0.567,0.767 0.285,0.191 1.07,0.29 2.357,0.299 1.289,0.01 2.244,0.323 2.866,0.939 0.623,0.616 1.069,1.385 1.338,2.305 l 12.342,42.224 c 0.745,2.548 -0.599,4.325 -4.033,5.329 -2.229,0.652 -3.962,0.612 -5.198,-0.117 -0.748,-0.414 -1.429,-1.185 -2.042,-2.312 -0.615,-1.127 -1.095,-1.763 -1.44,-1.905 -0.345,-0.143 -0.716,-0.157 -1.116,-0.04 -0.427,0.125 -0.8,0.355 -1.121,0.692 -0.32,0.336 -0.43,0.675 -0.331,1.017 0.838,2.867 1.742,5.037 2.715,6.508 0.972,1.472 1.932,2.07 2.878,1.793 z"
           style="fill:#008263;fill-opacity:1;fill-rule:nonzero;stroke:none"
           id="path378" />
      </g>
      <g
         id="g380"
         transform="translate(1188.5449,1392.9517)"
         style="fill:#008263;fill-opacity:1">
        <path
           d="m 0,0 c 4.659,-2.221 9.032,-3.046 13.123,-2.473 4.09,0.573 7.523,2.045 10.297,4.416 2.772,2.372 5.353,6.06 7.74,11.064 4.123,8.645 5.465,16.116 4.028,22.411 -1.438,6.297 -5.242,10.916 -11.413,13.859 -6.369,3.037 -12.469,3.066 -18.3,0.084 C -0.358,46.38 -4.811,41.67 -7.881,35.229 -16.034,18.137 -13.406,6.395 0,0 M 25.367,52.616 C 34.024,48.487 39.411,42.275 41.527,33.98 43.643,25.684 42.937,17.838 39.41,10.442 36.802,4.976 33.078,0.62 28.235,-2.626 23.392,-5.873 18.371,-7.395 13.169,-7.191 c -5.2,0.203 -10.225,1.461 -15.072,3.773 -7.891,3.763 -13.149,9.641 -15.774,17.632 -2.626,7.993 -1.92,16.218 2.114,24.677 2.113,4.428 5.363,8.252 9.753,11.471 4.388,3.22 9.297,5.062 14.725,5.524 5.427,0.463 10.911,-0.627 16.452,-3.27"
           style="fill:#008263;fill-opacity:1;fill-rule:nonzero;stroke:none"
           id="path382" />
      </g>
      <g
         id="g384"
         transform="translate(1287.752,1355.0269)"
         style="fill:#008263;fill-opacity:1">
        <path
           d="M 0,0 C 0.777,-0.559 1.263,-1.018 1.459,-1.378 1.654,-1.739 1.576,-2.164 1.225,-2.653 0.872,-3.143 0.228,-3.464 -0.71,-3.616 -1.646,-3.77 -2.468,-4.335 -3.172,-5.313 l -1.969,-2.736 c -0.528,-0.735 -0.727,-1.469 -0.597,-2.204 0.129,-0.735 0.074,-1.268 -0.166,-1.602 -0.657,-0.913 -2.461,-1.368 -5.416,-1.37 -2.955,0 -6.269,0.569 -9.938,1.708 -3.672,1.14 -6.875,2.694 -9.61,4.662 -6.941,4.994 -11.254,11.585 -12.943,19.772 -1.688,8.186 0.213,16.094 5.705,23.724 3.201,4.448 7.195,7.853 11.984,10.214 4.788,2.361 9.768,3.311 14.937,2.849 5.17,-0.463 10.014,-2.319 14.53,-5.569 4.381,-3.154 7.868,-6.87 10.461,-11.15 2.591,-4.279 3.183,-7.398 1.775,-9.355 L 13.66,20.961 c -0.191,-0.267 -0.429,-0.712 -0.709,-1.338 -0.282,-0.625 -0.59,-1.171 -0.927,-1.638 -0.319,-0.445 -0.701,-0.753 -1.144,-0.923 -0.444,-0.17 -0.844,-0.127 -1.199,0.128 -0.378,0.273 -0.626,0.679 -0.743,1.219 -0.119,0.541 -0.012,1.722 0.32,3.543 0.598,3.418 0.638,6.174 0.119,8.27 -0.913,3.662 -3.451,6.991 -7.614,9.987 -5.279,3.798 -10.887,4.916 -16.826,3.354 -5.941,-1.562 -11.158,-5.465 -15.652,-11.711 -5.118,-7.112 -7.349,-13.831 -6.69,-20.159 0.657,-6.326 3.695,-11.438 9.112,-15.337 2.809,-2.022 5.819,-3.34 9.031,-3.955 3.211,-0.615 5.589,0.15 7.135,2.296 l 3.224,4.48 c 0.78,1.085 0.147,2.364 -1.899,3.837 -0.356,0.256 -0.924,0.63 -1.699,1.122 -0.779,0.491 -1.322,0.849 -1.634,1.073 -0.844,0.608 -1.38,1.249 -1.604,1.922 -0.224,0.674 -0.143,1.28 0.246,1.82 0.694,0.966 1.686,0.986 2.974,0.059 z"
           style="fill:#008263;fill-opacity:1;fill-rule:nonzero;stroke:none"
           id="path386" />
      </g>
      <g
         id="g388"
         transform="translate(1333.8691,1354.0991)"
         style="fill:#008263;fill-opacity:1">
        <path
           d="M 0,0 C 1.476,1.474 1.271,3.272 -0.615,5.394 -1.925,6.857 -2.167,8.001 -1.344,8.826 -0.48,9.688 0.745,9.325 2.332,7.737 3.085,6.981 3.849,6.081 4.624,5.035 5.396,3.989 6.103,3.146 6.741,2.507 7.167,2.081 8.482,1.035 10.689,-0.631 c 2.206,-1.666 3.831,-3.021 4.875,-4.067 3.986,-3.99 6.193,-8.258 6.622,-12.802 0.426,-4.545 -0.999,-8.456 -4.28,-11.733 -2.097,-2.095 -4.445,-3.21 -7.044,-3.346 -2.598,-0.136 -5.981,0.716 -10.148,2.558 -0.775,0.349 -1.278,0.407 -1.512,0.174 -0.155,-0.155 -0.291,-0.523 -0.406,-1.105 -0.445,-2.579 -1.709,-7.858 -3.79,-15.836 -2.082,-7.979 -3.138,-12.176 -3.167,-12.593 -0.028,-0.417 0.233,-1.184 0.787,-2.3 0.554,-1.116 0.802,-1.925 0.748,-2.427 -0.057,-0.502 -0.257,-0.925 -0.602,-1.269 -0.442,-0.442 -1.112,-0.53 -2.011,-0.264 -0.898,0.266 -1.522,0.574 -1.87,0.924 -0.894,0.893 -1.635,2.323 -2.227,4.291 -0.594,1.968 -0.851,3.397 -0.773,4.288 0.212,1.724 1.688,8.145 4.433,19.263 1.274,5.191 1.97,8.136 2.086,8.833 0.463,2.557 0.403,4.553 -0.179,5.988 -0.154,0.351 -0.215,0.618 -0.184,0.804 0.029,0.186 0.222,0.455 0.576,0.808 0.844,0.844 1.768,0.763 2.773,-0.243 0.095,-0.096 0.333,-0.401 0.708,-0.913 0.377,-0.513 0.778,-0.983 1.203,-1.408 2.126,-2.127 4.592,-3.217 7.4,-3.27 2.808,-0.054 5.445,1.151 7.913,3.616 1.748,1.746 2.683,4.287 2.805,7.623 0.12,3.336 -1.241,6.429 -4.089,9.28 C 10.271,-4.691 9.37,-4.032 8.634,-3.78 7.898,-3.528 7.286,-3.519 6.801,-3.751 6.315,-3.984 5.783,-4.392 5.2,-4.974 L -27.424,-37.56 c -0.64,-0.64 -0.883,-1.437 -0.725,-2.39 0.157,-0.953 0.682,-1.878 1.579,-2.775 0.972,-0.974 1.5,-1.752 1.582,-2.332 0.081,-0.581 -0.118,-1.111 -0.599,-1.591 -0.461,-0.461 -1.053,-0.636 -1.775,-0.528 -0.724,0.111 -1.501,0.581 -2.331,1.413 -0.755,0.754 -1.46,1.896 -2.116,3.426 -0.656,1.528 -1.302,2.612 -1.94,3.251 -0.542,0.542 -1.563,1.147 -3.062,1.814 -1.499,0.668 -2.558,1.311 -3.175,1.929 -1.78,1.781 -2.112,3.228 -0.998,4.34 0.421,0.421 0.878,0.588 1.368,0.501 0.491,-0.088 1.313,-0.71 2.469,-1.867 0.693,-0.694 1.416,-1.108 2.169,-1.24 0.753,-0.134 1.354,0.023 1.801,0.469 z"
           style="fill:#008263;fill-opacity:1;fill-rule:nonzero;stroke:none"
           id="path390" />
      </g>
      <g
         id="g392"
         transform="translate(1391.6357,1275.9409)"
         style="fill:#008263;fill-opacity:1">
        <path
           d="M 0,0 C 0.709,1.178 0.984,1.878 0.825,2.101 0.633,2.373 -0.369,2.27 -2.183,1.794 l -21.443,-4.51 -18.178,-3.643 c -0.55,-0.123 -0.982,-0.296 -1.294,-0.519 -0.335,-0.238 -0.544,-0.58 -0.63,-1.028 -0.085,-0.447 0.082,-1.246 0.499,-2.396 0.415,-1.151 0.575,-1.945 0.479,-2.384 -0.096,-0.439 -0.313,-0.778 -0.652,-1.019 -1.038,-0.74 -2.036,-0.441 -2.99,0.899 -0.222,0.313 -0.671,1.144 -1.348,2.495 -0.676,1.353 -1.302,2.43 -1.874,3.234 -0.589,0.826 -1.276,1.614 -2.064,2.365 -0.788,0.751 -1.324,1.328 -1.61,1.73 -0.397,0.558 -0.576,1.121 -0.535,1.688 0.04,0.566 0.257,0.99 0.649,1.269 0.581,0.414 1.038,0.572 1.375,0.479 0.337,-0.096 0.763,-0.411 1.279,-0.947 1.525,-1.525 3.028,-2.253 4.509,-2.184 1.483,0.068 6.283,0.943 14.407,2.624 l 23.851,4.775 c 5.745,1.097 9.529,1.866 11.353,2.307 1.822,0.44 3.124,0.938 3.905,1.495 0.267,0.191 0.683,0.635 1.246,1.334 0.562,0.698 0.998,1.159 1.311,1.382 0.647,0.46 1.217,0.346 1.709,-0.345 C 12.58,9.758 12.752,8.502 12.285,7.128 11.816,5.753 10.667,3.541 8.837,0.49 L -5.517,-23.713 c -5.233,-8.808 -8.436,-14.302 -9.607,-16.483 -1.173,-2.18 -1.817,-3.743 -1.933,-4.69 -0.117,-0.947 -0.013,-1.906 0.309,-2.879 0.323,-0.973 0.471,-1.689 0.444,-2.148 -0.026,-0.459 -0.318,-0.887 -0.876,-1.285 -0.781,-0.556 -1.674,-0.129 -2.676,1.279 -0.335,0.47 -0.872,1.377 -1.611,2.721 -0.738,1.345 -1.547,2.633 -2.423,3.862 -0.877,1.231 -1.872,2.451 -2.986,3.663 -1.115,1.211 -1.849,2.063 -2.199,2.554 -0.542,0.761 -0.841,1.457 -0.9,2.09 -0.059,0.632 0.137,1.109 0.59,1.43 0.383,0.274 0.796,0.365 1.237,0.272 0.44,-0.092 1.136,-0.689 2.086,-1.789 0.953,-1.1 1.746,-1.684 2.384,-1.756 0.637,-0.07 1.245,0.101 1.824,0.514 0.625,0.443 1.89,2.304 3.8,5.582 1.908,3.278 2.842,5.136 2.798,5.575 -0.044,0.439 -0.384,1.104 -1.018,1.995 l -10.642,14.941 c -0.413,0.579 -0.601,1.236 -0.561,1.968 0.04,0.733 0.307,1.276 0.803,1.63 0.382,0.272 0.852,0.33 1.407,0.17 0.554,-0.158 0.998,-0.471 1.332,-0.939 L -13.7,-19.805 c 0.571,-0.802 1.002,-1.1 1.293,-0.894 0.178,0.128 0.501,0.594 0.971,1.399 z"
           style="fill:#008263;fill-opacity:1;fill-rule:nonzero;stroke:none"
           id="path394" />
      </g>
      <g
         id="g396"
         transform="translate(1432.2939,1225.1128)"
         style="fill:#008263;fill-opacity:1">
        <path
           d="M 0,0 C 1.964,0.971 2.29,2.783 0.978,5.436 0.15,7.106 0.291,8.214 1.396,8.762 2.452,9.284 3.394,8.71 4.22,7.04 4.693,6.082 5.118,4.961 5.492,3.68 5.866,2.397 6.255,1.351 6.655,0.541 c 0.341,-0.688 1.071,-1.81 2.193,-3.365 1.12,-1.555 2.264,-3.512 3.43,-5.87 2.868,-5.797 3.738,-10.907 2.61,-15.333 -1.128,-4.426 -3.534,-7.55 -7.218,-9.372 -2.899,-1.434 -5.479,-1.814 -7.737,-1.141 -2.26,0.675 -4.621,1.987 -7.084,3.938 -2.464,1.951 -4.712,4.981 -6.745,9.09 -1.18,2.387 -1.066,3.929 0.343,4.626 0.365,0.18 0.743,0.161 1.139,-0.057 0.395,-0.219 0.733,-0.61 1.014,-1.177 0.061,-0.124 0.237,-0.542 0.53,-1.256 0.291,-0.714 0.577,-1.353 0.857,-1.92 1.317,-2.66 3.227,-4.451 5.732,-5.373 2.503,-0.922 5.229,-0.654 8.177,0.804 2.776,1.373 4.69,3.654 5.743,6.84 1.052,3.188 0.683,6.591 -1.107,10.21 C 7.887,-7.511 7.249,-6.669 6.62,-6.292 5.99,-5.914 5.305,-5.823 4.563,-6.022 3.82,-6.22 2.702,-6.689 1.206,-7.429 l -39.103,-19.345 c -1.913,-0.947 -2.256,-2.66 -1.029,-5.141 0.595,-1.203 0.836,-2.086 0.72,-2.647 -0.116,-0.562 -0.477,-0.993 -1.083,-1.293 -0.997,-0.493 -1.991,0.266 -2.987,2.276 -0.316,0.638 -0.672,1.949 -1.074,3.933 -0.401,1.983 -0.722,3.22 -0.964,3.71 -0.364,0.736 -1.134,1.705 -2.309,2.908 -1.177,1.204 -1.905,2.087 -2.184,2.651 -1.043,2.108 -0.946,3.469 0.292,4.081 0.339,0.168 0.683,0.193 1.029,0.073 0.346,-0.119 0.912,-0.833 1.697,-2.142 0.784,-1.308 1.69,-1.998 2.72,-2.071 1.027,-0.071 2.083,0.159 3.162,0.694 z"
           style="fill:#008263;fill-opacity:1;fill-rule:nonzero;stroke:none"
           id="path398" />
      </g>
      <g
         id="g400"
         transform="translate(1429.6641,1109.3267)"
         style="fill:#008263;fill-opacity:1">
        <path
           d="m 0,0 c -0.889,-0.277 -1.617,-0.748 -2.183,-1.414 -0.567,-0.664 -0.825,-1.72 -0.774,-3.169 0.049,-1.448 -0.031,-2.349 -0.24,-2.702 -0.21,-0.352 -0.528,-0.594 -0.95,-0.726 -0.372,-0.117 -0.815,0.046 -1.331,0.487 -0.514,0.441 -0.903,1.079 -1.164,1.914 -0.204,0.652 -0.415,1.768 -0.634,3.346 -0.22,1.579 -0.412,2.629 -0.576,3.151 -0.244,0.784 -0.691,1.826 -1.341,3.127 -0.65,1.301 -1.065,2.238 -1.244,2.813 -0.586,1.879 -0.31,2.996 0.829,3.351 0.661,0.206 1.148,0.18 1.462,-0.081 0.314,-0.261 0.681,-0.814 1.104,-1.659 0.42,-0.843 0.99,-1.47 1.706,-1.878 0.718,-0.408 1.966,-0.334 3.747,0.222 l 23.574,7.357 c 0.837,0.261 1.412,0.722 1.724,1.381 0.312,0.658 0.187,1.894 -0.38,3.704 l -5.38,17.241 c -0.459,1.47 -0.597,2.456 -0.412,2.96 0.182,0.504 0.585,0.853 1.205,1.046 0.622,0.194 1.158,0.067 1.612,-0.382 0.452,-0.449 0.9,-1.382 1.342,-2.799 l 5.812,-18.621 c 0.319,-1.023 0.686,-1.628 1.103,-1.815 0.415,-0.187 1.08,-0.138 1.993,0.147 5.767,1.8 9.235,2.961 10.403,3.484 1.169,0.522 1.709,1.89 1.62,4.101 -0.018,1.172 0.106,1.935 0.373,2.291 0.266,0.356 0.637,0.608 1.113,0.756 0.318,0.099 0.69,0.001 1.116,-0.296 0.426,-0.296 0.725,-0.718 0.896,-1.267 0.318,-1.017 0.594,-2.293 0.828,-3.824 0.233,-1.531 0.485,-2.726 0.753,-3.588 0.278,-0.888 0.716,-1.947 1.315,-3.179 0.599,-1.23 1.083,-2.433 1.45,-3.607 0.391,-1.253 0.069,-2.04 -0.964,-2.363 -0.661,-0.207 -1.148,-0.186 -1.457,0.061 -0.311,0.248 -0.683,0.793 -1.117,1.633 -0.434,0.84 -1.039,1.47 -1.816,1.888 -0.775,0.418 -2.104,0.333 -3.986,-0.254 z m -10.47,33.55 c -0.81,-0.253 -1.474,-0.697 -1.994,-1.332 -0.518,-0.636 -0.785,-1.688 -0.8,-3.157 -0.015,-1.469 -0.139,-2.39 -0.371,-2.764 -0.232,-0.374 -0.56,-0.627 -0.984,-0.759 -0.371,-0.116 -0.813,0.046 -1.329,0.487 -0.516,0.441 -0.903,1.079 -1.163,1.914 -0.204,0.653 -0.416,1.768 -0.636,3.347 -0.22,1.578 -0.412,2.629 -0.574,3.151 -0.245,0.783 -0.693,1.826 -1.342,3.126 -0.649,1.301 -1.066,2.239 -1.243,2.812 -0.587,1.881 -0.312,2.998 0.826,3.353 0.661,0.206 1.147,0.186 1.458,-0.062 0.31,-0.249 0.67,-0.781 1.083,-1.6 0.414,-0.818 0.976,-1.424 1.687,-1.82 0.711,-0.395 1.956,-0.316 3.734,0.239 l 41.287,12.886 c 0.889,0.277 1.632,0.724 2.227,1.34 0.596,0.618 0.869,1.628 0.818,3.033 -0.051,1.405 0.055,2.293 0.317,2.662 0.264,0.369 0.633,0.628 1.11,0.777 0.318,0.099 0.689,0 1.117,-0.297 0.426,-0.296 0.725,-0.719 0.897,-1.266 0.318,-1.018 0.594,-2.293 0.827,-3.824 0.234,-1.531 0.486,-2.727 0.754,-3.589 0.277,-0.888 0.715,-1.946 1.315,-3.178 0.599,-1.23 1.083,-2.433 1.448,-3.608 0.392,-1.253 0.071,-2.04 -0.962,-2.363 -0.661,-0.206 -1.156,-0.181 -1.484,0.075 -0.327,0.258 -0.727,0.801 -1.2,1.628 -0.474,0.828 -1.097,1.445 -1.87,1.85 -0.771,0.405 -2.045,0.33 -3.824,-0.224 z"
           style="fill:#008263;fill-opacity:1;fill-rule:nonzero;stroke:none"
           id="path402" />
      </g>
      <g
         id="g404"
         transform="translate(1465.457,1056.7144)"
         style="fill:#008263;fill-opacity:1">
        <path
           d="m 0,0 c 0.142,-0.228 0.446,-0.45 0.916,-0.663 l 1.803,-0.793 c 12.04,-5.477 18.698,-8.131 19.973,-7.962 0.379,0.05 0.659,0.226 0.84,0.526 0.181,0.301 0.22,1.045 0.118,2.234 -0.103,1.189 -0.017,1.982 0.258,2.378 0.277,0.396 0.684,0.629 1.221,0.7 0.59,0.079 1.1,-0.2 1.525,-0.836 0.426,-0.636 0.694,-1.362 0.802,-2.179 0.095,-0.708 0.114,-1.8 0.063,-3.275 -0.054,-1.475 -0.03,-2.594 0.071,-3.357 0.091,-0.68 0.331,-1.652 0.72,-2.917 0.389,-1.265 0.625,-2.21 0.709,-2.836 0.088,-0.681 0.011,-1.335 -0.234,-1.963 -0.243,-0.628 -0.621,-0.976 -1.131,-1.044 -1.317,-0.176 -2.109,0.743 -2.376,2.753 -0.183,1.385 -0.688,2.577 -1.509,3.573 -0.823,0.996 -2.36,1.967 -4.611,2.912 l -3.779,1.655 C 1.892,-5.145 -5.368,-2.238 -6.398,-2.375 l -17.413,-2.312 c -2.686,-0.357 -4.301,-0.757 -4.85,-1.204 -0.548,-0.446 -0.883,-1.25 -1.005,-2.414 -0.121,-1.163 -0.304,-1.878 -0.549,-2.146 -0.244,-0.267 -0.558,-0.427 -0.943,-0.478 -0.551,-0.072 -1.039,0.083 -1.47,0.467 -0.427,0.385 -0.68,0.861 -0.756,1.43 -0.093,0.705 -0.105,1.731 -0.034,3.078 0.069,1.346 0.056,2.386 -0.042,3.117 -0.09,0.678 -0.34,1.631 -0.752,2.859 -0.412,1.228 -0.66,2.153 -0.742,2.776 -0.114,0.867 -0.051,1.648 0.192,2.343 0.244,0.694 0.655,1.079 1.231,1.156 0.467,0.061 0.888,-0.007 1.264,-0.206 0.376,-0.198 0.717,-0.775 1.024,-1.73 0.305,-0.955 0.672,-1.59 1.1,-1.906 0.429,-0.316 0.85,-0.475 1.264,-0.476 0.412,0 1.42,0.106 3.019,0.318 l 19.512,2.592 c 0.571,0.075 1.063,0.306 1.481,0.694 l 19.054,17.582 c 1.642,1.545 2.79,2.816 3.445,3.816 0.653,0.999 0.878,2.26 0.677,3.78 -0.249,1.875 0.311,2.904 1.685,3.085 1.29,0.172 2.055,-0.653 2.297,-2.473 0.123,-0.923 0.182,-2.304 0.178,-4.144 -0.006,-1.838 0.052,-3.22 0.177,-4.144 0.099,-0.76 0.376,-1.905 0.829,-3.435 0.451,-1.529 0.729,-2.688 0.835,-3.476 0.352,-2.662 -0.117,-4.079 -1.408,-4.25 -0.521,-0.07 -0.964,0.044 -1.324,0.342 -0.361,0.298 -0.688,1.028 -0.979,2.192 -0.293,1.164 -0.573,1.873 -0.842,2.128 -0.268,0.255 -0.577,0.358 -0.929,0.312 -0.921,-0.123 -4,-2.752 -9.24,-7.888 C 8.854,8.307 7.069,6.663 4.23,4.079 1.393,1.496 -0.017,0.136 0,0"
           style="fill:#008263;fill-opacity:1;fill-rule:nonzero;stroke:none"
           id="path406" />
      </g>
    </g>
  </g>
</svg>
